<?xml version="1.0" encoding="utf-8"?>
<!-- Generator: Adobe Illustrator 23.0.1, SVG Export Plug-In . SVG Version: 6.00 Build 0)  -->
<svg version="1.1"
	 id="svg2" xmlns:cc="http://creativecommons.org/ns#" xmlns:dc="http://purl.org/dc/elements/1.1/" xmlns:rdf="http://www.w3.org/1999/02/22-rdf-syntax-ns#" xmlns:svg="http://www.w3.org/2000/svg"
	 xmlns="http://www.w3.org/2000/svg" xmlns:xlink="http://www.w3.org/1999/xlink" x="0px" y="0px" viewBox="0 0 372.3 400"
	 style="enable-background:new 0 0 372.3 400;" xml:space="preserve">
<style type="text/css">
	.st0{clip-path:url(#SVGID_2_);}
	.st1{fill:none;stroke:#000000;stroke-width:0.75;stroke-linecap:round;stroke-linejoin:round;stroke-miterlimit:10;}
	.st2{fill-rule:evenodd;clip-rule:evenodd;fill:#FFFFFF;}
	.st3{clip-path:url(#SVGID_4_);}
	.st4{font-family:'Calibri';}
	.st5{font-size:13.6px;}
	.st6{clip-path:url(#SVGID_6_);}
	.st7{clip-path:url(#SVGID_8_);}
	.st8{clip-path:url(#SVGID_10_);}
	.st9{fill:none;stroke:#231F20;stroke-miterlimit:10;}
	.st10{fill-rule:evenodd;clip-rule:evenodd;}
	.st11{clip-path:url(#SVGID_12_);}
	.st12{font-size:10.4px;}
	.st13{clip-path:url(#SVGID_14_);}
	.st14{font-size:10.4333px;}
	.st15{clip-path:url(#SVGID_16_);}
	.st16{clip-path:url(#SVGID_18_);}
	.st17{clip-path:url(#SVGID_20_);}
	.st18{clip-path:url(#SVGID_22_);}
	.st19{clip-path:url(#SVGID_24_);}
	.st20{clip-path:url(#SVGID_26_);}
	.st21{clip-path:url(#SVGID_28_);}
	.st22{clip-path:url(#SVGID_30_);}
	.st23{clip-path:url(#SVGID_32_);}
	.st24{clip-path:url(#SVGID_34_);}
	.st25{clip-path:url(#SVGID_36_);}
	.st26{clip-path:url(#SVGID_38_);}
	.st27{clip-path:url(#SVGID_40_);}
	.st28{clip-path:url(#SVGID_42_);}
	.st29{clip-path:url(#SVGID_44_);}
	.st30{clip-path:url(#SVGID_46_);}
	.st31{clip-path:url(#SVGID_48_);}
	.st32{clip-path:url(#SVGID_50_);}
	.st33{clip-path:url(#SVGID_52_);}
	.st34{clip-path:url(#SVGID_54_);}
	.st35{clip-path:url(#SVGID_56_);}
	.st36{clip-path:url(#SVGID_58_);}
	.st37{clip-path:url(#SVGID_60_);}
	.st38{clip-path:url(#SVGID_62_);}
	.st39{clip-path:url(#SVGID_64_);}
	.st40{clip-path:url(#SVGID_66_);}
	.st41{clip-path:url(#SVGID_68_);}
	.st42{clip-path:url(#SVGID_70_);}
	.st43{clip-path:url(#SVGID_72_);}
	.st44{clip-path:url(#SVGID_74_);}
	.st45{clip-path:url(#SVGID_76_);}
	.st46{clip-path:url(#SVGID_78_);}
	.st47{clip-path:url(#SVGID_80_);}
	.st48{clip-path:url(#SVGID_82_);}
</style>
<g id="g10" transform="matrix(1.3333333,0,0,-1.3333333,0,1056)">
	<g id="g12">
		<g>
			<defs>
				<rect id="SVGID_1_" x="-222.4" y="146" width="816" height="1056"/>
			</defs>
			<clipPath id="SVGID_2_">
				<use xlink:href="#SVGID_1_"  style="overflow:visible;"/>
			</clipPath>
			<g id="g14" class="st0">
				<path id="path20" class="st1" d="M-120.4,278h612v792h-612V278z"/>
			</g>
		</g>
	</g>
	<path id="path22" class="st2" d="M101.6,661h90v54h-90V661z"/>
	<path id="path24" class="st1" d="M101.6,661h90v54h-90V661z"/>
	<g id="g26">
		<g>
			<defs>
				<rect id="SVGID_3_" x="-222.4" y="146" width="816" height="1056"/>
			</defs>
			<clipPath id="SVGID_4_">
				<use xlink:href="#SVGID_3_"  style="overflow:visible;"/>
			</clipPath>
			<g id="g28" class="st3">
				<text transform="matrix(0.75 0 0 -0.75 168.0375 663.7229)" class="st4 st5">A</text>
				<text transform="matrix(0.75 0 0 -0.75 174.0375 663.7229)" class="st4 st5">0</text>
			</g>
		</g>
	</g>
	<g id="g38">
		<g>
			<defs>
				<rect id="SVGID_5_" x="-222.4" y="146" width="816" height="1056"/>
			</defs>
			<clipPath id="SVGID_6_">
				<use xlink:href="#SVGID_5_"  style="overflow:visible;"/>
			</clipPath>
			<g id="g40" class="st6">
				<text transform="matrix(0.75 0 0 -0.75 107.5467 690.7427)" class="st4 st5">B</text>
				<text transform="matrix(0.75 0 0 -0.75 112.9432 690.7427)" class="st4 st5">u</text>
				<text transform="matrix(0.75 0 0 -0.75 118.328 690.7427)" class="st4 st5">y</text>
				<text transform="matrix(0.75 0 0 -0.75 122.5306 690.7427)" class="st4 st5">/</text>
				<text transform="matrix(0.75 0 0 -0.75 126.723 690.7427)" class="st4 st5">M</text>
				<text transform="matrix(0.75 0 0 -0.75 135.1481 690.7427)" class="st4 st5">a</text>
				<text transform="matrix(0.75 0 0 -0.75 139.952 690.7427)" class="st4 st5">k</text>
				<text transform="matrix(0.75 0 0 -0.75 144.7464 690.7427)" class="st4 st5">e</text>
				<text transform="matrix(0.75 0 0 -0.75 149.5504 690.7427)" class="st4 st5"> </text>
				<text transform="matrix(0.75 0 0 -0.75 151.9374 690.7427)" class="st4 st5">D</text>
				<text transform="matrix(0.75 0 0 -0.75 157.9352 690.7427)" class="st4 st5">e</text>
				<text transform="matrix(0.75 0 0 -0.75 162.7391 690.7427)" class="st4 st5">c</text>
				<text transform="matrix(0.75 0 0 -0.75 166.9418 690.7427)" class="st4 st5">i</text>
				<text transform="matrix(0.75 0 0 -0.75 169.328 690.7427)" class="st4 st5">s</text>
				<text transform="matrix(0.75 0 0 -0.75 173.5204 690.7427)" class="st4 st5">i</text>
				<text transform="matrix(0.75 0 0 -0.75 175.3156 690.7427)" class="st4 st5">o</text>
				<text transform="matrix(0.75 0 0 -0.75 180.6908 690.7427)" class="st4 st5">n</text>
				<text transform="matrix(0.75 0 0 -0.75 186.1078 690.7427)" class="st4 st5"> </text>
			</g>
		</g>
	</g>
	<path id="path50" class="st2" d="M101.6,661h90v54h-90V661z"/>
	<path id="path52" class="st1" d="M101.6,661h90v54h-90V661z"/>
	<g id="g54">
		<g>
			<defs>
				<rect id="SVGID_7_" x="-222.4" y="146" width="816" height="1056"/>
			</defs>
			<clipPath id="SVGID_8_">
				<use xlink:href="#SVGID_7_"  style="overflow:visible;"/>
			</clipPath>
			<g id="g56" class="st7">
				<text transform="matrix(0.75 0 0 -0.75 168.0375 663.7229)" class="st4 st5">A</text>
				<text transform="matrix(0.75 0 0 -0.75 174.0375 663.7229)" class="st4 st5">0</text>
			</g>
		</g>
	</g>
	<g id="g66">
		<g>
			<defs>
				<rect id="SVGID_9_" x="-222.4" y="146" width="816" height="1056"/>
			</defs>
			<clipPath id="SVGID_10_">
				<use xlink:href="#SVGID_9_"  style="overflow:visible;"/>
			</clipPath>
			<g id="g68" class="st8">
				<text transform="matrix(0.75 0 0 -0.75 107.5467 690.7427)" class="st4 st5">B</text>
				<text transform="matrix(0.75 0 0 -0.75 112.9432 690.7427)" class="st4 st5">u</text>
				<text transform="matrix(0.75 0 0 -0.75 118.328 690.7427)" class="st4 st5">y</text>
				<text transform="matrix(0.75 0 0 -0.75 122.5306 690.7427)" class="st4 st5">/</text>
				<text transform="matrix(0.75 0 0 -0.75 126.723 690.7427)" class="st4 st5">M</text>
				<text transform="matrix(0.75 0 0 -0.75 135.1481 690.7427)" class="st4 st5">a</text>
				<text transform="matrix(0.75 0 0 -0.75 139.952 690.7427)" class="st4 st5">k</text>
				<text transform="matrix(0.75 0 0 -0.75 144.7464 690.7427)" class="st4 st5">e</text>
				<text transform="matrix(0.75 0 0 -0.75 149.5504 690.7427)" class="st4 st5"> </text>
				<text transform="matrix(0.75 0 0 -0.75 151.9374 690.7427)" class="st4 st5">D</text>
				<text transform="matrix(0.75 0 0 -0.75 157.9352 690.7427)" class="st4 st5">e</text>
				<text transform="matrix(0.75 0 0 -0.75 162.7391 690.7427)" class="st4 st5">c</text>
				<text transform="matrix(0.75 0 0 -0.75 166.9418 690.7427)" class="st4 st5">i</text>
				<text transform="matrix(0.75 0 0 -0.75 169.328 690.7427)" class="st4 st5">s</text>
				<text transform="matrix(0.75 0 0 -0.75 173.5204 690.7427)" class="st4 st5">i</text>
				<text transform="matrix(0.75 0 0 -0.75 175.3156 690.7427)" class="st4 st5">o</text>
				<text transform="matrix(0.75 0 0 -0.75 180.6908 690.7427)" class="st4 st5">n</text>
				<text transform="matrix(0.75 0 0 -0.75 186.1078 690.7427)" class="st4 st5"> </text>
			</g>
		</g>
	</g>
	<path id="path78" class="st9" d="M6.8,688h90"/>
	<path id="path80" class="st10" d="M96.1,690.8l5.5-2.8l-5.5-2.8V690.8z"/>
	<path id="path82" class="st2" d="M32.5,683.2h43.4v9.6H32.5V683.2z"/>
	<g id="g84">
		<g>
			<defs>
				<rect id="SVGID_11_" x="-222.4" y="146" width="816" height="1056"/>
			</defs>
			<clipPath id="SVGID_12_">
				<use xlink:href="#SVGID_11_"  style="overflow:visible;"/>
			</clipPath>
			<g id="g86" class="st11">
				<text transform="matrix(0.75 0 0 -0.75 32.6969 685.3425)" class="st4 st12">I</text>
				<text transform="matrix(0.75 0 0 -0.75 34.4986 685.3425)" class="st4 st12">n</text>
				<text transform="matrix(0.75 0 0 -0.75 38.6873 685.3425)" class="st4 st12">i</text>
				<text transform="matrix(0.75 0 0 -0.75 40.4814 685.3425)" class="st4 st12">t</text>
				<text transform="matrix(0.75 0 0 -0.75 43.4767 685.3425)" class="st4 st12">i</text>
				<text transform="matrix(0.75 0 0 -0.75 45.2704 685.3425)" class="st4 st12">a</text>
				<text transform="matrix(0.75 0 0 -0.75 48.8742 685.3425)" class="st4 st12">l</text>
				<text transform="matrix(0.75 0 0 -0.75 50.6683 685.3425)" class="st4 st12"> </text>
				<text transform="matrix(0.75 0 0 -0.75 52.4701 685.3425)" class="st4 st12">M</text>
				<text transform="matrix(0.75 0 0 -0.75 59.6617 685.3425)" class="st4 st12">B</text>
				<text transform="matrix(0.75 0 0 -0.75 63.8578 685.3425)" class="st4 st12">O</text>
				<text transform="matrix(0.75 0 0 -0.75 69.2477 685.3425)" class="st4 st12">M</text>
			</g>
		</g>
	</g>
	<path id="path96" class="st9" d="M191.6,706h67.2"/>
	<path id="path98" class="st10" d="M258.1,708.8l5.5-2.8l-5.5-2.8V708.8z"/>
	<path id="path100" class="st2" d="M207.4,701.2h40.5v9.6h-40.5V701.2z"/>
	<g id="g102">
		<g>
			<defs>
				<rect id="SVGID_13_" x="-222.4" y="146" width="816" height="1056"/>
			</defs>
			<clipPath id="SVGID_14_">
				<use xlink:href="#SVGID_13_"  style="overflow:visible;"/>
			</clipPath>
			<g id="g104" class="st13">
				<text transform="matrix(0.75 0 0 -0.75 207.6967 703.3726)" class="st4 st14">F</text>
				<text transform="matrix(0.75 0 0 -0.75 211.2885 703.3726)" class="st4 st14">i</text>
				<text transform="matrix(0.75 0 0 -0.75 213.0888 703.3726)" class="st4 st14">n</text>
				<text transform="matrix(0.75 0 0 -0.75 217.2907 703.3726)" class="st4 st14">a</text>
				<text transform="matrix(0.75 0 0 -0.75 221.4845 703.3726)" class="st4 st14">l</text>
				<text transform="matrix(0.75 0 0 -0.75 223.2841 703.3726)" class="st4 st14"> </text>
				<text transform="matrix(0.75 0 0 -0.75 225.0763 703.3726)" class="st4 st14">M</text>
				<text transform="matrix(0.75 0 0 -0.75 231.6732 703.3726)" class="st4 st14">B</text>
				<text transform="matrix(0.75 0 0 -0.75 235.8744 703.3726)" class="st4 st14">O</text>
				<text transform="matrix(0.75 0 0 -0.75 241.2665 703.3726)" class="st4 st14">M</text>
			</g>
		</g>
	</g>
	<path id="path114" class="st9" d="M191.6,670h67.2"/>
	<path id="path116" class="st10" d="M258.1,672.8l5.5-2.8l-5.5-2.8V672.8z"/>
	<path id="path118" class="st2" d="M205.7,665.2h43.9v9.6h-43.9V665.2z"/>
	<g id="g120">
		<g>
			<defs>
				<rect id="SVGID_15_" x="-222.4" y="146" width="816" height="1056"/>
			</defs>
			<clipPath id="SVGID_16_">
				<use xlink:href="#SVGID_15_"  style="overflow:visible;"/>
			</clipPath>
			<g id="g122" class="st15">
				<text transform="matrix(0.75 0 0 -0.75 205.9974 667.3425)" class="st4 st14">S</text>
				<text transform="matrix(0.75 0 0 -0.75 209.5885 667.3425)" class="st4 st14">o</text>
				<text transform="matrix(0.75 0 0 -0.75 213.7904 667.3425)" class="st4 st14">u</text>
				<text transform="matrix(0.75 0 0 -0.75 217.985 667.3425)" class="st4 st14">r</text>
				<text transform="matrix(0.75 0 0 -0.75 220.974 667.3425)" class="st4 st14">c</text>
				<text transform="matrix(0.75 0 0 -0.75 223.9711 667.3425)" class="st4 st14">i</text>
				<text transform="matrix(0.75 0 0 -0.75 226.3654 667.3425)" class="st4 st14">n</text>
				<text transform="matrix(0.75 0 0 -0.75 230.56 667.3425)" class="st4 st14">g</text>
				<text transform="matrix(0.75 0 0 -0.75 234.1591 667.3425)" class="st4 st14"> </text>
				<text transform="matrix(0.75 0 0 -0.75 235.9513 667.3425)" class="st4 st14">P</text>
				<text transform="matrix(0.75 0 0 -0.75 240.1452 667.3425)" class="st4 st14">l</text>
				<text transform="matrix(0.75 0 0 -0.75 241.9447 667.3425)" class="st4 st14">a</text>
				<text transform="matrix(0.75 0 0 -0.75 245.5446 667.3425)" class="st4 st14">n</text>
			</g>
		</g>
	</g>
	<g id="g132">
		<g>
			<defs>
				<polyline id="SVGID_17_" points="-120.4,1070 491.6,1070 491.6,278 -120.4,278 				"/>
			</defs>
			<clipPath id="SVGID_18_">
				<use xlink:href="#SVGID_17_"  style="overflow:visible;"/>
			</clipPath>
			<g id="g134" class="st16">
				<path id="path140" class="st9" d="M112.9,593v63.2"/>
			</g>
		</g>
	</g>
	<g id="g142">
		<g>
			<defs>
				<polyline id="SVGID_19_" points="-120.4,1070 491.6,1070 491.6,278 -120.4,278 				"/>
			</defs>
			<clipPath id="SVGID_20_">
				<use xlink:href="#SVGID_19_"  style="overflow:visible;"/>
			</clipPath>
			<g id="g144" class="st17">
				<path id="path150" class="st10" d="M110.1,655.5l2.8,5.5l2.8-5.5H110.1z"/>
			</g>
		</g>
	</g>
	<g id="g152">
		<g>
			<defs>
				<polyline id="SVGID_21_" points="-120.4,1070 491.6,1070 491.6,278 -120.4,278 				"/>
			</defs>
			<clipPath id="SVGID_22_">
				<use xlink:href="#SVGID_21_"  style="overflow:visible;"/>
			</clipPath>
			<g id="g154" class="st18">
				<path id="path160" class="st2" d="M88.8,607.8H137v38.4H88.8L88.8,607.8z"/>
			</g>
		</g>
	</g>
	<g id="g162">
		<g>
			<defs>
				<rect id="SVGID_23_" x="-222.4" y="146" width="816" height="1056"/>
			</defs>
			<clipPath id="SVGID_24_">
				<use xlink:href="#SVGID_23_"  style="overflow:visible;"/>
			</clipPath>
			<g id="g164" class="st19">
				<text transform="matrix(0.75 0 0 -0.75 88.967 638.7224)" class="st4 st12">M</text>
				<text transform="matrix(0.75 0 0 -0.75 95.5658 638.7224)" class="st4 st12">a</text>
				<text transform="matrix(0.75 0 0 -0.75 99.7545 638.7224)" class="st4 st12">n</text>
				<text transform="matrix(0.75 0 0 -0.75 103.9432 638.7224)" class="st4 st12">u</text>
				<text transform="matrix(0.75 0 0 -0.75 108.1316 638.7224)" class="st4 st12">f</text>
				<text transform="matrix(0.75 0 0 -0.75 110.5108 638.7224)" class="st4 st12">a</text>
				<text transform="matrix(0.75 0 0 -0.75 114.1297 638.7224)" class="st4 st12">c</text>
				<text transform="matrix(0.75 0 0 -0.75 117.7259 638.7224)" class="st4 st12">t</text>
				<text transform="matrix(0.75 0 0 -0.75 120.1283 638.7224)" class="st4 st12">u</text>
				<text transform="matrix(0.75 0 0 -0.75 124.3163 638.7224)" class="st4 st12">r</text>
				<text transform="matrix(0.75 0 0 -0.75 127.3119 638.7224)" class="st4 st12">i</text>
				<text transform="matrix(0.75 0 0 -0.75 129.1056 638.7224)" class="st4 st12">n</text>
				<text transform="matrix(0.75 0 0 -0.75 133.3024 638.7224)" class="st4 st12">g</text>
				<text transform="matrix(0.75 0 0 -0.75 136.9059 638.7224)" class="st4 st12"> </text>
			</g>
		</g>
	</g>
	<g id="g174">
		<g>
			<defs>
				<rect id="SVGID_25_" x="-222.4" y="146" width="816" height="1056"/>
			</defs>
			<clipPath id="SVGID_26_">
				<use xlink:href="#SVGID_25_"  style="overflow:visible;"/>
			</clipPath>
			<g id="g176" class="st20">
				<text transform="matrix(0.75 0 0 -0.75 100.7169 629.0925)" class="st4 st12">P</text>
				<text transform="matrix(0.75 0 0 -0.75 104.9056 629.0925)" class="st4 st12">r</text>
				<text transform="matrix(0.75 0 0 -0.75 107.9009 629.0925)" class="st4 st12">o</text>
				<text transform="matrix(0.75 0 0 -0.75 112.0892 629.0925)" class="st4 st12">c</text>
				<text transform="matrix(0.75 0 0 -0.75 115.0921 629.0925)" class="st4 st12">e</text>
				<text transform="matrix(0.75 0 0 -0.75 119.2809 629.0925)" class="st4 st12">s</text>
				<text transform="matrix(0.75 0 0 -0.75 122.2838 629.0925)" class="st4 st12">s</text>
			</g>
		</g>
	</g>
	<g id="g186">
		<g>
			<defs>
				<rect id="SVGID_27_" x="-222.4" y="146" width="816" height="1056"/>
			</defs>
			<clipPath id="SVGID_28_">
				<use xlink:href="#SVGID_27_"  style="overflow:visible;"/>
			</clipPath>
			<g id="g188" class="st21">
			</g>
		</g>
	</g>
	<g id="g194">
		<g>
			<defs>
				<rect id="SVGID_29_" x="-222.4" y="146" width="816" height="1056"/>
			</defs>
			<clipPath id="SVGID_30_">
				<use xlink:href="#SVGID_29_"  style="overflow:visible;"/>
			</clipPath>
			<g id="g196" class="st22">
				<text transform="matrix(0.75 0 0 -0.75 92.1168 619.4927)" class="st4 st12">M</text>
				<text transform="matrix(0.75 0 0 -0.75 98.7394 619.4927)" class="st4 st12">a</text>
				<text transform="matrix(0.75 0 0 -0.75 102.9588 619.4927)" class="st4 st12">n</text>
				<text transform="matrix(0.75 0 0 -0.75 107.1791 619.4927)" class="st4 st12">a</text>
				<text transform="matrix(0.75 0 0 -0.75 110.806 619.4927)" class="st4 st12">g</text>
				<text transform="matrix(0.75 0 0 -0.75 114.433 619.4927)" class="st4 st12">e</text>
				<text transform="matrix(0.75 0 0 -0.75 118.6525 619.4927)" class="st4 st12">m</text>
				<text transform="matrix(0.75 0 0 -0.75 125.267 619.4927)" class="st4 st12">e</text>
				<text transform="matrix(0.75 0 0 -0.75 128.8939 619.4927)" class="st4 st12">n</text>
				<text transform="matrix(0.75 0 0 -0.75 133.1141 619.4927)" class="st4 st12">t</text>
			</g>
		</g>
	</g>
	<g id="g206">
		<g>
			<defs>
				<rect id="SVGID_31_" x="-222.4" y="146" width="816" height="1056"/>
			</defs>
			<clipPath id="SVGID_32_">
				<use xlink:href="#SVGID_31_"  style="overflow:visible;"/>
			</clipPath>
			<g id="g208" class="st23">
				<text transform="matrix(0.75 0 0 -0.75 101.7672 609.8928)" class="st4 st12">(</text>
				<text transform="matrix(0.75 0 0 -0.75 104.1615 609.8928)" class="st4 st12">M</text>
				<text transform="matrix(0.75 0 0 -0.75 110.7606 609.8928)" class="st4 st12">P</text>
				<text transform="matrix(0.75 0 0 -0.75 114.9486 609.8928)" class="st4 st12">M</text>
				<text transform="matrix(0.75 0 0 -0.75 122.141 609.8928)" class="st4 st12">)</text>
			</g>
		</g>
	</g>
	<g id="g218">
		<g>
			<defs>
				<polyline id="SVGID_33_" points="-120.4,1070 491.6,1070 491.6,278 -120.4,278 				"/>
			</defs>
			<clipPath id="SVGID_34_">
				<use xlink:href="#SVGID_33_"  style="overflow:visible;"/>
			</clipPath>
			<g id="g220" class="st24">
				<path id="path226" class="st9" d="M112.9,777.8v-58"/>
			</g>
		</g>
	</g>
	<g id="g228">
		<g>
			<defs>
				<polyline id="SVGID_35_" points="-120.4,1070 491.6,1070 491.6,278 -120.4,278 				"/>
			</defs>
			<clipPath id="SVGID_36_">
				<use xlink:href="#SVGID_35_"  style="overflow:visible;"/>
			</clipPath>
			<g id="g230" class="st25">
				<path id="path236" class="st10" d="M115.6,720.6l-2.8-5.5l-2.8,5.5H115.6z"/>
			</g>
		</g>
	</g>
	<g id="g238">
		<g>
			<defs>
				<polyline id="SVGID_37_" points="-120.4,1070 491.6,1070 491.6,278 -120.4,278 				"/>
			</defs>
			<clipPath id="SVGID_38_">
				<use xlink:href="#SVGID_37_"  style="overflow:visible;"/>
			</clipPath>
			<g id="g240" class="st26">
				<path id="path246" class="st2" d="M88.8,736.8H137V756H88.8L88.8,736.8z"/>
			</g>
		</g>
	</g>
	<g id="g248">
		<g>
			<defs>
				<rect id="SVGID_39_" x="-222.4" y="146" width="816" height="1056"/>
			</defs>
			<clipPath id="SVGID_40_">
				<use xlink:href="#SVGID_39_"  style="overflow:visible;"/>
			</clipPath>
			<g id="g250" class="st27">
				<text transform="matrix(0.75 0 0 -0.75 88.967 748.593)" class="st4 st12">M</text>
				<text transform="matrix(0.75 0 0 -0.75 95.5658 748.593)" class="st4 st12">a</text>
				<text transform="matrix(0.75 0 0 -0.75 99.7545 748.593)" class="st4 st12">n</text>
				<text transform="matrix(0.75 0 0 -0.75 103.9432 748.593)" class="st4 st12">u</text>
				<text transform="matrix(0.75 0 0 -0.75 108.1316 748.593)" class="st4 st12">f</text>
				<text transform="matrix(0.75 0 0 -0.75 110.5108 748.593)" class="st4 st12">a</text>
				<text transform="matrix(0.75 0 0 -0.75 114.1297 748.593)" class="st4 st12">c</text>
				<text transform="matrix(0.75 0 0 -0.75 117.7259 748.593)" class="st4 st12">t</text>
				<text transform="matrix(0.75 0 0 -0.75 120.1283 748.593)" class="st4 st12">u</text>
				<text transform="matrix(0.75 0 0 -0.75 124.3163 748.593)" class="st4 st12">r</text>
				<text transform="matrix(0.75 0 0 -0.75 127.3119 748.593)" class="st4 st12">i</text>
				<text transform="matrix(0.75 0 0 -0.75 129.1056 748.593)" class="st4 st12">n</text>
				<text transform="matrix(0.75 0 0 -0.75 133.3024 748.593)" class="st4 st12">g</text>
			</g>
		</g>
	</g>
	<g id="g260">
		<g>
			<defs>
				<rect id="SVGID_41_" x="-222.4" y="146" width="816" height="1056"/>
			</defs>
			<clipPath id="SVGID_42_">
				<use xlink:href="#SVGID_41_"  style="overflow:visible;"/>
			</clipPath>
			<g id="g262" class="st28">
				<text transform="matrix(0.75 0 0 -0.75 97.0171 738.9924)" class="st4 st12">C</text>
				<text transform="matrix(0.75 0 0 -0.75 101.2054 738.9924)" class="st4 st12">a</text>
				<text transform="matrix(0.75 0 0 -0.75 104.8089 738.9924)" class="st4 st12">p</text>
				<text transform="matrix(0.75 0 0 -0.75 109.5983 738.9924)" class="st4 st12">a</text>
				<text transform="matrix(0.75 0 0 -0.75 113.2018 738.9924)" class="st4 st12">b</text>
				<text transform="matrix(0.75 0 0 -0.75 117.3905 738.9924)" class="st4 st12">i</text>
				<text transform="matrix(0.75 0 0 -0.75 119.1849 738.9924)" class="st4 st12">l</text>
				<text transform="matrix(0.75 0 0 -0.75 120.9786 738.9924)" class="st4 st12">i</text>
				<text transform="matrix(0.75 0 0 -0.75 122.7723 738.9924)" class="st4 st12">t</text>
				<text transform="matrix(0.75 0 0 -0.75 125.7833 738.9924)" class="st4 st12">y</text>
			</g>
		</g>
	</g>
	<g id="g272">
		<g>
			<defs>
				<polyline id="SVGID_43_" points="-120.4,1070 491.6,1070 491.6,278 -120.4,278 				"/>
			</defs>
			<clipPath id="SVGID_44_">
				<use xlink:href="#SVGID_43_"  style="overflow:visible;"/>
			</clipPath>
			<g id="g274" class="st29">
				<path id="path280" class="st9" d="M157.9,580v76.2"/>
			</g>
		</g>
	</g>
	<g id="g282">
		<g>
			<defs>
				<polyline id="SVGID_45_" points="-120.4,1070 491.6,1070 491.6,278 -120.4,278 				"/>
			</defs>
			<clipPath id="SVGID_46_">
				<use xlink:href="#SVGID_45_"  style="overflow:visible;"/>
			</clipPath>
			<g id="g284" class="st30">
				<path id="path290" class="st10" d="M155.1,655.5l2.8,5.5l2.8-5.5H155.1z"/>
			</g>
		</g>
	</g>
	<g id="g292">
		<g>
			<defs>
				<polyline id="SVGID_47_" points="-120.4,1070 491.6,1070 491.6,278 -120.4,278 				"/>
			</defs>
			<clipPath id="SVGID_48_">
				<use xlink:href="#SVGID_47_"  style="overflow:visible;"/>
			</clipPath>
			<g id="g294" class="st31">
				<path id="path300" class="st2" d="M141.1,601.3h33.5v38.4h-33.5V601.3z"/>
			</g>
		</g>
	</g>
	<g id="g302">
		<g>
			<defs>
				<rect id="SVGID_49_" x="-222.4" y="146" width="816" height="1056"/>
			</defs>
			<clipPath id="SVGID_50_">
				<use xlink:href="#SVGID_49_"  style="overflow:visible;"/>
			</clipPath>
			<g id="g304" class="st32">
				<text transform="matrix(0.75 0 0 -0.75 141.3671 632.1929)" class="st4 st12">E</text>
				<text transform="matrix(0.75 0 0 -0.75 145.5873 632.1929)" class="st4 st12">n</text>
				<text transform="matrix(0.75 0 0 -0.75 149.8068 632.1929)" class="st4 st12">t</text>
				<text transform="matrix(0.75 0 0 -0.75 152.2091 632.1929)" class="st4 st12">e</text>
				<text transform="matrix(0.75 0 0 -0.75 156.4286 632.1929)" class="st4 st12">r</text>
				<text transform="matrix(0.75 0 0 -0.75 158.8309 632.1929)" class="st4 st12">p</text>
				<text transform="matrix(0.75 0 0 -0.75 163.0511 632.1929)" class="st4 st12">r</text>
				<text transform="matrix(0.75 0 0 -0.75 166.046 632.1929)" class="st4 st12">i</text>
				<text transform="matrix(0.75 0 0 -0.75 167.8405 632.1929)" class="st4 st12">s</text>
				<text transform="matrix(0.75 0 0 -0.75 170.8434 632.1929)" class="st4 st12">e</text>
				<text transform="matrix(0.75 0 0 -0.75 175.0629 632.1929)" class="st4 st12"> </text>
			</g>
		</g>
	</g>
	<g id="g314">
		<g>
			<defs>
				<rect id="SVGID_51_" x="-222.4" y="146" width="816" height="1056"/>
			</defs>
			<clipPath id="SVGID_52_">
				<use xlink:href="#SVGID_51_"  style="overflow:visible;"/>
			</clipPath>
			<g id="g316" class="st33">
				<text transform="matrix(0.75 0 0 -0.75 143.1168 622.593)" class="st4 st12">R</text>
				<text transform="matrix(0.75 0 0 -0.75 147.3136 622.593)" class="st4 st12">e</text>
				<text transform="matrix(0.75 0 0 -0.75 151.5023 622.593)" class="st4 st12">s</text>
				<text transform="matrix(0.75 0 0 -0.75 154.5052 622.593)" class="st4 st12">o</text>
				<text transform="matrix(0.75 0 0 -0.75 158.6932 622.593)" class="st4 st12">u</text>
				<text transform="matrix(0.75 0 0 -0.75 162.882 622.593)" class="st4 st12">r</text>
				<text transform="matrix(0.75 0 0 -0.75 165.8776 622.593)" class="st4 st12">c</text>
				<text transform="matrix(0.75 0 0 -0.75 168.8805 622.593)" class="st4 st12">e</text>
			</g>
		</g>
	</g>
	<g id="g326">
		<g>
			<defs>
				<rect id="SVGID_53_" x="-222.4" y="146" width="816" height="1056"/>
			</defs>
			<clipPath id="SVGID_54_">
				<use xlink:href="#SVGID_53_"  style="overflow:visible;"/>
			</clipPath>
			<g id="g328" class="st34">
			</g>
		</g>
	</g>
	<g id="g334">
		<g>
			<defs>
				<rect id="SVGID_55_" x="-222.4" y="146" width="816" height="1056"/>
			</defs>
			<clipPath id="SVGID_56_">
				<use xlink:href="#SVGID_55_"  style="overflow:visible;"/>
			</clipPath>
			<g id="g336" class="st35">
				<text transform="matrix(0.75 0 0 -0.75 145.0174 612.9924)" class="st4 st12">P</text>
				<text transform="matrix(0.75 0 0 -0.75 149.2369 612.9924)" class="st4 st12">l</text>
				<text transform="matrix(0.75 0 0 -0.75 151.0541 612.9924)" class="st4 st12">a</text>
				<text transform="matrix(0.75 0 0 -0.75 154.681 612.9924)" class="st4 st12">n</text>
				<text transform="matrix(0.75 0 0 -0.75 158.9012 612.9924)" class="st4 st12">n</text>
				<text transform="matrix(0.75 0 0 -0.75 163.1207 612.9924)" class="st4 st12">i</text>
				<text transform="matrix(0.75 0 0 -0.75 164.9379 612.9924)" class="st4 st12">n</text>
				<text transform="matrix(0.75 0 0 -0.75 169.1581 612.9924)" class="st4 st12">g</text>
				<text transform="matrix(0.75 0 0 -0.75 173.3776 612.9924)" class="st4 st12"> </text>
			</g>
		</g>
	</g>
	<g id="g346">
		<g>
			<defs>
				<rect id="SVGID_57_" x="-222.4" y="146" width="816" height="1056"/>
			</defs>
			<clipPath id="SVGID_58_">
				<use xlink:href="#SVGID_57_"  style="overflow:visible;"/>
			</clipPath>
			<g id="g348" class="st36">
				<text transform="matrix(0.75 0 0 -0.75 149.5175 603.3926)" class="st4 st14">(</text>
				<text transform="matrix(0.75 0 0 -0.75 151.9117 603.3926)" class="st4 st14">E</text>
				<text transform="matrix(0.75 0 0 -0.75 156.1056 603.3926)" class="st4 st14">R</text>
				<text transform="matrix(0.75 0 0 -0.75 160.3075 603.3926)" class="st4 st14">P</text>
				<text transform="matrix(0.75 0 0 -0.75 164.5021 603.3926)" class="st4 st14">)</text>
			</g>
		</g>
	</g>
	<g id="g358">
		<g>
			<defs>
				<polyline id="SVGID_59_" points="-120.4,1070 491.6,1070 491.6,278 -120.4,278 				"/>
			</defs>
			<clipPath id="SVGID_60_">
				<use xlink:href="#SVGID_59_"  style="overflow:visible;"/>
			</clipPath>
			<g id="g360" class="st37">
				<path id="path366" class="st9" d="M180.4,503v153.2"/>
			</g>
		</g>
	</g>
	<g id="g368">
		<g>
			<defs>
				<polyline id="SVGID_61_" points="-120.4,1070 491.6,1070 491.6,278 -120.4,278 				"/>
			</defs>
			<clipPath id="SVGID_62_">
				<use xlink:href="#SVGID_61_"  style="overflow:visible;"/>
			</clipPath>
			<g id="g370" class="st38">
				<path id="path376" class="st10" d="M177.6,655.5l2.8,5.5l2.8-5.5H177.6z"/>
			</g>
		</g>
	</g>
	<g id="g378">
		<g>
			<defs>
				<polyline id="SVGID_63_" points="-120.4,1070 491.6,1070 491.6,278 -120.4,278 				"/>
			</defs>
			<clipPath id="SVGID_64_">
				<use xlink:href="#SVGID_63_"  style="overflow:visible;"/>
			</clipPath>
			<g id="g380" class="st39">
				<path id="path386" class="st2" d="M165.4,562.8h30v38.4h-30V562.8z"/>
			</g>
		</g>
	</g>
	<g id="g388">
		<g>
			<defs>
				<rect id="SVGID_65_" x="-222.4" y="146" width="816" height="1056"/>
			</defs>
			<clipPath id="SVGID_66_">
				<use xlink:href="#SVGID_65_"  style="overflow:visible;"/>
			</clipPath>
			<g id="g390" class="st40">
				<text transform="matrix(0.75 0 0 -0.75 166.8473 593.6726)" class="st4 st12">M</text>
				<text transform="matrix(0.75 0 0 -0.75 173.4457 593.6726)" class="st4 st12">a</text>
				<text transform="matrix(0.75 0 0 -0.75 177.6344 593.6726)" class="st4 st12">t</text>
				<text transform="matrix(0.75 0 0 -0.75 180.0367 593.6726)" class="st4 st12">e</text>
				<text transform="matrix(0.75 0 0 -0.75 184.2255 593.6726)" class="st4 st12">r</text>
				<text transform="matrix(0.75 0 0 -0.75 187.2211 593.6726)" class="st4 st12">i</text>
				<text transform="matrix(0.75 0 0 -0.75 189.0148 593.6726)" class="st4 st12">a</text>
				<text transform="matrix(0.75 0 0 -0.75 192.6183 593.6726)" class="st4 st12">l</text>
			</g>
		</g>
	</g>
	<g id="g400">
		<g>
			<defs>
				<rect id="SVGID_67_" x="-222.4" y="146" width="816" height="1056"/>
			</defs>
			<clipPath id="SVGID_68_">
				<use xlink:href="#SVGID_67_"  style="overflow:visible;"/>
			</clipPath>
			<g id="g402" class="st41">
				<text transform="matrix(0.75 0 0 -0.75 165.6366 584.0625)" class="st4 st12">R</text>
				<text transform="matrix(0.75 0 0 -0.75 169.8334 584.0625)" class="st4 st12">e</text>
				<text transform="matrix(0.75 0 0 -0.75 174.0221 584.0625)" class="st4 st12">s</text>
				<text transform="matrix(0.75 0 0 -0.75 177.025 584.0625)" class="st4 st12">o</text>
				<text transform="matrix(0.75 0 0 -0.75 181.2137 584.0625)" class="st4 st12">u</text>
				<text transform="matrix(0.75 0 0 -0.75 185.4025 584.0625)" class="st4 st12">r</text>
				<text transform="matrix(0.75 0 0 -0.75 188.3973 584.0625)" class="st4 st12">c</text>
				<text transform="matrix(0.75 0 0 -0.75 191.4003 584.0625)" class="st4 st12">e</text>
				<text transform="matrix(0.75 0 0 -0.75 195.589 584.0625)" class="st4 st12"> </text>
			</g>
		</g>
	</g>
	<g id="g412">
		<g>
			<defs>
				<rect id="SVGID_69_" x="-222.4" y="146" width="816" height="1056"/>
			</defs>
			<clipPath id="SVGID_70_">
				<use xlink:href="#SVGID_69_"  style="overflow:visible;"/>
			</clipPath>
			<g id="g414" class="st42">
				<text transform="matrix(0.75 0 0 -0.75 166.6371 574.4626)" class="st4 st12">P</text>
				<text transform="matrix(0.75 0 0 -0.75 170.8258 574.4626)" class="st4 st12">l</text>
				<text transform="matrix(0.75 0 0 -0.75 172.6195 574.4626)" class="st4 st12">a</text>
				<text transform="matrix(0.75 0 0 -0.75 176.223 574.4626)" class="st4 st12">n</text>
				<text transform="matrix(0.75 0 0 -0.75 180.4117 574.4626)" class="st4 st12">n</text>
				<text transform="matrix(0.75 0 0 -0.75 184.6005 574.4626)" class="st4 st12">i</text>
				<text transform="matrix(0.75 0 0 -0.75 186.3942 574.4626)" class="st4 st12">n</text>
				<text transform="matrix(0.75 0 0 -0.75 190.5909 574.4626)" class="st4 st12">g</text>
			</g>
		</g>
	</g>
	<g id="g424">
		<g>
			<defs>
				<rect id="SVGID_71_" x="-222.4" y="146" width="816" height="1056"/>
			</defs>
			<clipPath id="SVGID_72_">
				<use xlink:href="#SVGID_71_"  style="overflow:visible;"/>
			</clipPath>
			<g id="g426" class="st43">
				<text transform="matrix(0.75 0 0 -0.75 170.5673 564.843)" class="st4 st12">(</text>
				<text transform="matrix(0.75 0 0 -0.75 172.9615 564.843)" class="st4 st12">M</text>
				<text transform="matrix(0.75 0 0 -0.75 179.5607 564.843)" class="st4 st12">R</text>
				<text transform="matrix(0.75 0 0 -0.75 184.35 564.843)" class="st4 st12">P</text>
				<text transform="matrix(0.75 0 0 -0.75 188.538 564.843)" class="st4 st12">)</text>
			</g>
		</g>
	</g>
	<g id="g436">
		<g>
			<defs>
				<polyline id="SVGID_73_" points="-120.4,1070 491.6,1070 491.6,278 -120.4,278 				"/>
			</defs>
			<clipPath id="SVGID_74_">
				<use xlink:href="#SVGID_73_"  style="overflow:visible;"/>
			</clipPath>
			<g id="g438" class="st44">
				<path id="path444" class="st9" d="M180.4,777.8v-58"/>
			</g>
		</g>
	</g>
	<g id="g446">
		<g>
			<defs>
				<polyline id="SVGID_75_" points="-120.4,1070 491.6,1070 491.6,278 -120.4,278 				"/>
			</defs>
			<clipPath id="SVGID_76_">
				<use xlink:href="#SVGID_75_"  style="overflow:visible;"/>
			</clipPath>
			<g id="g448" class="st45">
				<path id="path454" class="st10" d="M183.1,720.6l-2.8-5.5l-2.8,5.5H183.1z"/>
			</g>
		</g>
	</g>
	<g id="g456">
		<g>
			<defs>
				<polyline id="SVGID_77_" points="-120.4,1070 491.6,1070 491.6,278 -120.4,278 				"/>
			</defs>
			<clipPath id="SVGID_78_">
				<use xlink:href="#SVGID_77_"  style="overflow:visible;"/>
			</clipPath>
			<g id="g458" class="st46">
				<path id="path464" class="st2" d="M159.1,736.8h42.6V756h-42.6V736.8z"/>
			</g>
		</g>
	</g>
	<g id="g466">
		<g>
			<defs>
				<rect id="SVGID_79_" x="-222.4" y="146" width="816" height="1056"/>
			</defs>
			<clipPath id="SVGID_80_">
				<use xlink:href="#SVGID_79_"  style="overflow:visible;"/>
			</clipPath>
			<g id="g468" class="st47">
				<text transform="matrix(0.75 0 0 -0.75 162.7172 748.593)" class="st4 st12">P</text>
				<text transform="matrix(0.75 0 0 -0.75 166.9059 748.593)" class="st4 st12">r</text>
				<text transform="matrix(0.75 0 0 -0.75 169.9008 748.593)" class="st4 st12">o</text>
				<text transform="matrix(0.75 0 0 -0.75 174.0895 748.593)" class="st4 st12">d</text>
				<text transform="matrix(0.75 0 0 -0.75 178.2782 748.593)" class="st4 st12">u</text>
				<text transform="matrix(0.75 0 0 -0.75 182.4662 748.593)" class="st4 st12">c</text>
				<text transform="matrix(0.75 0 0 -0.75 185.4698 748.593)" class="st4 st12">t</text>
				<text transform="matrix(0.75 0 0 -0.75 188.4647 748.593)" class="st4 st12">i</text>
				<text transform="matrix(0.75 0 0 -0.75 190.2592 748.593)" class="st4 st12">o</text>
				<text transform="matrix(0.75 0 0 -0.75 194.4552 748.593)" class="st4 st12">n</text>
			</g>
		</g>
	</g>
	<g id="g478">
		<g>
			<defs>
				<rect id="SVGID_81_" x="-222.4" y="146" width="816" height="1056"/>
			</defs>
			<clipPath id="SVGID_82_">
				<use xlink:href="#SVGID_81_"  style="overflow:visible;"/>
			</clipPath>
			<g id="g480" class="st48">
				<text transform="matrix(0.75 0 0 -0.75 159.3473 738.9924)" class="st4 st12">R</text>
				<text transform="matrix(0.75 0 0 -0.75 163.5433 738.9924)" class="st4 st12">e</text>
				<text transform="matrix(0.75 0 0 -0.75 167.7321 738.9924)" class="st4 st12">q</text>
				<text transform="matrix(0.75 0 0 -0.75 171.9208 738.9924)" class="st4 st12">u</text>
				<text transform="matrix(0.75 0 0 -0.75 176.1095 738.9924)" class="st4 st12">i</text>
				<text transform="matrix(0.75 0 0 -0.75 177.9032 738.9924)" class="st4 st12">r</text>
				<text transform="matrix(0.75 0 0 -0.75 180.8988 738.9924)" class="st4 st12">e</text>
				<text transform="matrix(0.75 0 0 -0.75 184.5023 738.9924)" class="st4 st12">m</text>
				<text transform="matrix(0.75 0 0 -0.75 191.1161 738.9924)" class="st4 st12">e</text>
				<text transform="matrix(0.75 0 0 -0.75 195.3048 738.9924)" class="st4 st12">n</text>
				<text transform="matrix(0.75 0 0 -0.75 199.4935 738.9924)" class="st4 st12">t</text>
			</g>
		</g>
	</g>
</g>
</svg>
