<?xml version="1.0" encoding="utf-8"?>
<!-- Generator: Adobe Illustrator 23.0.1, SVG Export Plug-In . SVG Version: 6.00 Build 0)  -->
<svg version="1.1"
	 id="svg2" xmlns:cc="http://creativecommons.org/ns#" xmlns:dc="http://purl.org/dc/elements/1.1/" xmlns:rdf="http://www.w3.org/1999/02/22-rdf-syntax-ns#" xmlns:svg="http://www.w3.org/2000/svg"
	 xmlns="http://www.w3.org/2000/svg" xmlns:xlink="http://www.w3.org/1999/xlink" x="0px" y="0px" viewBox="0 0 401 446"
	 style="enable-background:new 0 0 401 446;" xml:space="preserve">
<style type="text/css">
	.st0{clip-path:url(#SVGID_2_);}
	.st1{fill:none;stroke:#000000;stroke-width:0.75;stroke-linecap:round;stroke-linejoin:round;stroke-miterlimit:10;}
	.st2{fill-rule:evenodd;clip-rule:evenodd;fill:#FFFFFF;}
	.st3{clip-path:url(#SVGID_4_);}
	.st4{font-family:'Calibri';}
	.st5{font-size:13.6px;}
	.st6{clip-path:url(#SVGID_6_);}
	.st7{clip-path:url(#SVGID_8_);}
	.st8{clip-path:url(#SVGID_10_);}
	.st9{clip-path:url(#SVGID_12_);}
	.st10{clip-path:url(#SVGID_14_);}
	.st11{fill:none;stroke:#231F20;stroke-miterlimit:10;}
	.st12{fill-rule:evenodd;clip-rule:evenodd;}
	.st13{clip-path:url(#SVGID_16_);}
	.st14{font-size:10.4px;}
	.st15{clip-path:url(#SVGID_18_);}
	.st16{clip-path:url(#SVGID_20_);}
	.st17{clip-path:url(#SVGID_22_);}
	.st18{clip-path:url(#SVGID_24_);}
	.st19{clip-path:url(#SVGID_26_);}
	.st20{clip-path:url(#SVGID_28_);}
	.st21{clip-path:url(#SVGID_30_);}
	.st22{clip-path:url(#SVGID_32_);}
	.st23{clip-path:url(#SVGID_34_);}
	.st24{font-size:10.4333px;}
	.st25{clip-path:url(#SVGID_36_);}
	.st26{clip-path:url(#SVGID_38_);}
	.st27{clip-path:url(#SVGID_40_);}
	.st28{clip-path:url(#SVGID_42_);}
	.st29{clip-path:url(#SVGID_44_);}
	.st30{clip-path:url(#SVGID_46_);}
	.st31{clip-path:url(#SVGID_48_);}
	.st32{clip-path:url(#SVGID_50_);}
	.st33{clip-path:url(#SVGID_52_);}
	.st34{clip-path:url(#SVGID_54_);}
	.st35{clip-path:url(#SVGID_56_);}
	.st36{clip-path:url(#SVGID_58_);}
	.st37{clip-path:url(#SVGID_60_);}
	.st38{clip-path:url(#SVGID_62_);}
	.st39{clip-path:url(#SVGID_64_);}
	.st40{clip-path:url(#SVGID_66_);}
	.st41{clip-path:url(#SVGID_68_);}
	.st42{clip-path:url(#SVGID_70_);}
	.st43{clip-path:url(#SVGID_72_);}
	.st44{clip-path:url(#SVGID_74_);}
	.st45{clip-path:url(#SVGID_76_);}
	.st46{clip-path:url(#SVGID_78_);}
	.st47{clip-path:url(#SVGID_80_);}
	.st48{clip-path:url(#SVGID_82_);}
	.st49{clip-path:url(#SVGID_84_);}
	.st50{clip-path:url(#SVGID_86_);}
	.st51{clip-path:url(#SVGID_88_);}
	.st52{clip-path:url(#SVGID_90_);}
</style>
<g id="g10" transform="matrix(1.3333333,0,0,-1.3333333,0,1056)">
	<g id="g12">
		<g>
			<defs>
				<rect id="SVGID_1_" x="-259.5" y="73.5" width="816" height="1056"/>
			</defs>
			<clipPath id="SVGID_2_">
				<use xlink:href="#SVGID_1_"  style="overflow:visible;"/>
			</clipPath>
			<g id="g14" class="st0">
				<path id="path20" class="st1" d="M-157.5,205.5h612v792h-612V205.5z"/>
			</g>
		</g>
	</g>
	<path id="path22" class="st2" d="M100.8,664.7h90v54h-90V664.7z"/>
	<path id="path24" class="st1" d="M100.8,664.7h90v54h-90V664.7z"/>
	<g id="g26">
		<g>
			<defs>
				<rect id="SVGID_3_" x="-259.5" y="73.5" width="816" height="1056"/>
			</defs>
			<clipPath id="SVGID_4_">
				<use xlink:href="#SVGID_3_"  style="overflow:visible;"/>
			</clipPath>
			<g id="g28" class="st3">
				<text transform="matrix(0.75 0 0 -0.75 167.7298 667.4299)" class="st4 st5">C</text>
				<text transform="matrix(0.75 0 0 -0.75 173.1299 667.4299)" class="st4 st5">0</text>
			</g>
		</g>
	</g>
	<g id="g38">
		<g>
			<defs>
				<rect id="SVGID_5_" x="-259.5" y="73.5" width="816" height="1056"/>
			</defs>
			<clipPath id="SVGID_6_">
				<use xlink:href="#SVGID_5_"  style="overflow:visible;"/>
			</clipPath>
			<g id="g40" class="st6">
				<text transform="matrix(0.75 0 0 -0.75 129.3801 700.4504)" class="st4 st5">S</text>
				<text transform="matrix(0.75 0 0 -0.75 134.1738 700.4504)" class="st4 st5">u</text>
				<text transform="matrix(0.75 0 0 -0.75 138.9785 700.4504)" class="st4 st5">p</text>
				<text transform="matrix(0.75 0 0 -0.75 144.364 700.4504)" class="st4 st5">p</text>
				<text transform="matrix(0.75 0 0 -0.75 149.7495 700.4504)" class="st4 st5">l</text>
				<text transform="matrix(0.75 0 0 -0.75 152.1358 700.4504)" class="st4 st5">i</text>
				<text transform="matrix(0.75 0 0 -0.75 154.5227 700.4504)" class="st4 st5">e</text>
				<text transform="matrix(0.75 0 0 -0.75 159.3274 700.4504)" class="st4 st5">r</text>
				<text transform="matrix(0.75 0 0 -0.75 162.9177 700.4504)" class="st4 st5"> </text>
			</g>
		</g>
	</g>
	<g id="g50">
		<g>
			<defs>
				<rect id="SVGID_7_" x="-259.5" y="73.5" width="816" height="1056"/>
			</defs>
			<clipPath id="SVGID_8_">
				<use xlink:href="#SVGID_7_"  style="overflow:visible;"/>
			</clipPath>
			<g id="g52" class="st7">
				<text transform="matrix(0.75 0 0 -0.75 118.1499 688.4504)" class="st4 st5">Q</text>
				<text transform="matrix(0.75 0 0 -0.75 124.7798 688.4504)" class="st4 st5">u</text>
				<text transform="matrix(0.75 0 0 -0.75 130.196 688.4504)" class="st4 st5">a</text>
				<text transform="matrix(0.75 0 0 -0.75 135.0205 688.4504)" class="st4 st5">l</text>
				<text transform="matrix(0.75 0 0 -0.75 137.4382 688.4504)" class="st4 st5">i</text>
				<text transform="matrix(0.75 0 0 -0.75 139.856 688.4504)" class="st4 st5">f</text>
				<text transform="matrix(0.75 0 0 -0.75 142.8853 688.4504)" class="st4 st5">i</text>
				<text transform="matrix(0.75 0 0 -0.75 145.3022 688.4504)" class="st4 st5">c</text>
				<text transform="matrix(0.75 0 0 -0.75 149.5254 688.4504)" class="st4 st5">a</text>
				<text transform="matrix(0.75 0 0 -0.75 154.3499 688.4504)" class="st4 st5">t</text>
				<text transform="matrix(0.75 0 0 -0.75 157.3792 688.4504)" class="st4 st5">i</text>
				<text transform="matrix(0.75 0 0 -0.75 159.7969 688.4504)" class="st4 st5">o</text>
				<text transform="matrix(0.75 0 0 -0.75 165.2124 688.4504)" class="st4 st5">n</text>
				<text transform="matrix(0.75 0 0 -0.75 170.6294 688.4504)" class="st4 st5">s</text>
				<text transform="matrix(0.75 0 0 -0.75 174.2498 688.4504)" class="st4 st5"> </text>
			</g>
		</g>
	</g>
	<path id="path62" class="st2" d="M100.8,664.7h90v54h-90V664.7z"/>
	<path id="path64" class="st1" d="M100.8,664.7h90v54h-90V664.7z"/>
	<g id="g66">
		<g>
			<defs>
				<rect id="SVGID_9_" x="-259.5" y="73.5" width="816" height="1056"/>
			</defs>
			<clipPath id="SVGID_10_">
				<use xlink:href="#SVGID_9_"  style="overflow:visible;"/>
			</clipPath>
			<g id="g68" class="st8">
				<text transform="matrix(0.75 0 0 -0.75 167.7298 667.4299)" class="st4 st5">C</text>
				<text transform="matrix(0.75 0 0 -0.75 173.1299 667.4299)" class="st4 st5">0</text>
			</g>
		</g>
	</g>
	<g id="g78">
		<g>
			<defs>
				<rect id="SVGID_11_" x="-259.5" y="73.5" width="816" height="1056"/>
			</defs>
			<clipPath id="SVGID_12_">
				<use xlink:href="#SVGID_11_"  style="overflow:visible;"/>
			</clipPath>
			<g id="g80" class="st9">
				<text transform="matrix(0.75 0 0 -0.75 129.3801 700.4504)" class="st4 st5">S</text>
				<text transform="matrix(0.75 0 0 -0.75 134.1738 700.4504)" class="st4 st5">u</text>
				<text transform="matrix(0.75 0 0 -0.75 138.9785 700.4504)" class="st4 st5">p</text>
				<text transform="matrix(0.75 0 0 -0.75 144.364 700.4504)" class="st4 st5">p</text>
				<text transform="matrix(0.75 0 0 -0.75 149.7495 700.4504)" class="st4 st5">l</text>
				<text transform="matrix(0.75 0 0 -0.75 152.1358 700.4504)" class="st4 st5">i</text>
				<text transform="matrix(0.75 0 0 -0.75 154.5227 700.4504)" class="st4 st5">e</text>
				<text transform="matrix(0.75 0 0 -0.75 159.3274 700.4504)" class="st4 st5">r</text>
				<text transform="matrix(0.75 0 0 -0.75 162.9177 700.4504)" class="st4 st5"> </text>
			</g>
		</g>
	</g>
	<g id="g90">
		<g>
			<defs>
				<rect id="SVGID_13_" x="-259.5" y="73.5" width="816" height="1056"/>
			</defs>
			<clipPath id="SVGID_14_">
				<use xlink:href="#SVGID_13_"  style="overflow:visible;"/>
			</clipPath>
			<g id="g92" class="st10">
				<text transform="matrix(0.75 0 0 -0.75 118.1499 688.4504)" class="st4 st5">Q</text>
				<text transform="matrix(0.75 0 0 -0.75 124.7798 688.4504)" class="st4 st5">u</text>
				<text transform="matrix(0.75 0 0 -0.75 130.196 688.4504)" class="st4 st5">a</text>
				<text transform="matrix(0.75 0 0 -0.75 135.0205 688.4504)" class="st4 st5">l</text>
				<text transform="matrix(0.75 0 0 -0.75 137.4382 688.4504)" class="st4 st5">i</text>
				<text transform="matrix(0.75 0 0 -0.75 139.856 688.4504)" class="st4 st5">f</text>
				<text transform="matrix(0.75 0 0 -0.75 142.8853 688.4504)" class="st4 st5">i</text>
				<text transform="matrix(0.75 0 0 -0.75 145.3022 688.4504)" class="st4 st5">c</text>
				<text transform="matrix(0.75 0 0 -0.75 149.5254 688.4504)" class="st4 st5">a</text>
				<text transform="matrix(0.75 0 0 -0.75 154.3499 688.4504)" class="st4 st5">t</text>
				<text transform="matrix(0.75 0 0 -0.75 157.3792 688.4504)" class="st4 st5">i</text>
				<text transform="matrix(0.75 0 0 -0.75 159.7969 688.4504)" class="st4 st5">o</text>
				<text transform="matrix(0.75 0 0 -0.75 165.2124 688.4504)" class="st4 st5">n</text>
				<text transform="matrix(0.75 0 0 -0.75 170.6294 688.4504)" class="st4 st5">s</text>
				<text transform="matrix(0.75 0 0 -0.75 174.2498 688.4504)" class="st4 st5"> </text>
			</g>
		</g>
	</g>
	<path id="path102" class="st11" d="M6.3,691.7H96"/>
	<path id="path104" class="st12" d="M95.3,694.4l5.5-2.8l-5.5-2.8L95.3,694.4z"/>
	<path id="path106" class="st2" d="M13.7,686.9h79.7v9.6H13.7V686.9z"/>
	<g id="g108">
		<g>
			<defs>
				<rect id="SVGID_15_" x="-259.5" y="73.5" width="816" height="1056"/>
			</defs>
			<clipPath id="SVGID_16_">
				<use xlink:href="#SVGID_15_"  style="overflow:visible;"/>
			</clipPath>
			<g id="g110" class="st13">
				<text transform="matrix(0.75 0 0 -0.75 13.8501 689.0502)" class="st4 st14">I</text>
				<text transform="matrix(0.75 0 0 -0.75 15.6518 689.0502)" class="st4 st14">d</text>
				<text transform="matrix(0.75 0 0 -0.75 19.8406 689.0502)" class="st4 st14">e</text>
				<text transform="matrix(0.75 0 0 -0.75 24.0289 689.0502)" class="st4 st14">n</text>
				<text transform="matrix(0.75 0 0 -0.75 28.2176 689.0502)" class="st4 st14">t</text>
				<text transform="matrix(0.75 0 0 -0.75 30.62 689.0502)" class="st4 st14">i</text>
				<text transform="matrix(0.75 0 0 -0.75 33.0146 689.0502)" class="st4 st14">f</text>
				<text transform="matrix(0.75 0 0 -0.75 35.3935 689.0502)" class="st4 st14">i</text>
				<text transform="matrix(0.75 0 0 -0.75 37.2034 689.0502)" class="st4 st14">e</text>
				<text transform="matrix(0.75 0 0 -0.75 40.8069 689.0502)" class="st4 st14">d</text>
				<text transform="matrix(0.75 0 0 -0.75 44.9956 689.0502)" class="st4 st14"> </text>
				<text transform="matrix(0.75 0 0 -0.75 46.7893 689.0502)" class="st4 st14">N</text>
				<text transform="matrix(0.75 0 0 -0.75 52.2103 689.0502)" class="st4 st14">e</text>
				<text transform="matrix(0.75 0 0 -0.75 56.399 689.0502)" class="st4 st14">w</text>
				<text transform="matrix(0.75 0 0 -0.75 61.8277 689.0502)" class="st4 st14"> </text>
				<text transform="matrix(0.75 0 0 -0.75 63.6218 689.0502)" class="st4 st14">S</text>
				<text transform="matrix(0.75 0 0 -0.75 67.2019 689.0502)" class="st4 st14">u</text>
				<text transform="matrix(0.75 0 0 -0.75 71.414 689.0502)" class="st4 st14">p</text>
				<text transform="matrix(0.75 0 0 -0.75 75.6028 689.0502)" class="st4 st14">p</text>
				<text transform="matrix(0.75 0 0 -0.75 79.7915 689.0502)" class="st4 st14">l</text>
				<text transform="matrix(0.75 0 0 -0.75 81.5852 689.0502)" class="st4 st14">i</text>
				<text transform="matrix(0.75 0 0 -0.75 83.3789 689.0502)" class="st4 st14">e</text>
				<text transform="matrix(0.75 0 0 -0.75 87.583 689.0502)" class="st4 st14">r</text>
				<text transform="matrix(0.75 0 0 -0.75 90.5786 689.0502)" class="st4 st14">s</text>
				<text transform="matrix(0.75 0 0 -0.75 93.5815 689.0502)" class="st4 st14"> </text>
			</g>
		</g>
	</g>
	<g id="g120">
		<g>
			<defs>
				<polyline id="SVGID_17_" points="-157.5,997.5 454.5,997.5 454.5,205.5 -157.5,205.5 				"/>
			</defs>
			<clipPath id="SVGID_18_">
				<use xlink:href="#SVGID_17_"  style="overflow:visible;"/>
			</clipPath>
			<g id="g122" class="st15">
				<path id="path128" class="st11" d="M190.8,691.7l96.9-0.2"/>
			</g>
		</g>
	</g>
	<g id="g130">
		<g>
			<defs>
				<polyline id="SVGID_19_" points="-157.5,997.5 454.5,997.5 454.5,205.5 -157.5,205.5 				"/>
			</defs>
			<clipPath id="SVGID_20_">
				<use xlink:href="#SVGID_19_"  style="overflow:visible;"/>
			</clipPath>
			<g id="g132" class="st16">
				<path id="path138" class="st12" d="M287,694.3l5.5-2.8l-5.5-2.8L287,694.3z"/>
			</g>
		</g>
	</g>
	<g id="g140">
		<g>
			<defs>
				<polyline id="SVGID_21_" points="-157.5,997.5 454.5,997.5 454.5,205.5 -157.5,205.5 				"/>
			</defs>
			<clipPath id="SVGID_22_">
				<use xlink:href="#SVGID_21_"  style="overflow:visible;"/>
			</clipPath>
			<g id="g142" class="st17">
				<path id="path148" class="st2" d="M216.3,677.2H267V706h-50.7V677.2z"/>
			</g>
		</g>
	</g>
	<path id="path150" d="M227.8,699.5c0,0,0-0.1,0-0.1c0,0,0-0.1,0-0.1c0,0,0,0,0-0.1c0,0,0,0,0-0.1c0,0-0.1-0.1-0.2-0.1
		c-0.1,0-0.2-0.1-0.3-0.2c-0.1,0-0.3-0.1-0.4-0.1c-0.2,0-0.3,0-0.5,0c-0.3,0-0.6,0.1-0.9,0.2c-0.3,0.1-0.5,0.3-0.7,0.5
		c-0.2,0.2-0.3,0.5-0.4,0.8s-0.1,0.7-0.1,1.1c0,0.4,0,0.8,0.2,1.1c0.1,0.3,0.3,0.6,0.5,0.8c0.2,0.2,0.4,0.4,0.7,0.5
		c0.3,0.1,0.6,0.2,0.9,0.2c0.1,0,0.3,0,0.4,0c0.1,0,0.3-0.1,0.4-0.1c0.1,0,0.2-0.1,0.3-0.2c0.1,0,0.2-0.1,0.2-0.1
		c0,0,0.1-0.1,0.1-0.1c0,0,0,0,0-0.1c0,0,0,0,0-0.1c0,0,0-0.1,0-0.1s0-0.1,0-0.1c0,0,0-0.1,0-0.1c0,0,0,0,0-0.1c0,0,0,0-0.1,0
		s-0.1,0-0.1,0.1c-0.1,0-0.1,0.1-0.3,0.2c-0.1,0.1-0.2,0.1-0.4,0.2c-0.1,0-0.3,0.1-0.5,0.1c-0.2,0-0.4,0-0.6-0.1
		c-0.2-0.1-0.3-0.2-0.5-0.4c-0.1-0.2-0.2-0.4-0.3-0.6c-0.1-0.3-0.1-0.5-0.1-0.9c0-0.3,0-0.6,0.1-0.8c0.1-0.2,0.2-0.5,0.3-0.6
		c0.1-0.2,0.3-0.3,0.5-0.4c0.2-0.1,0.4-0.1,0.6-0.1c0.2,0,0.4,0,0.5,0.1s0.3,0.1,0.4,0.2c0.1,0.1,0.2,0.1,0.3,0.2s0.1,0.1,0.2,0.1
		c0,0,0,0,0,0c0,0,0,0,0,0s0,0,0-0.1C227.8,699.6,227.8,699.6,227.8,699.5L227.8,699.5z M231.8,700.7c0-0.3,0-0.5-0.1-0.8
		c-0.1-0.2-0.2-0.5-0.3-0.6c-0.1-0.2-0.3-0.3-0.6-0.4c-0.2-0.1-0.5-0.1-0.8-0.1c-0.3,0-0.5,0-0.8,0.1c-0.2,0.1-0.4,0.2-0.5,0.4
		c-0.1,0.2-0.3,0.4-0.3,0.6c-0.1,0.2-0.1,0.5-0.1,0.8c0,0.3,0,0.5,0.1,0.8c0.1,0.2,0.2,0.5,0.3,0.6c0.1,0.2,0.3,0.3,0.6,0.4
		c0.2,0.1,0.5,0.1,0.8,0.1c0.3,0,0.5,0,0.8-0.1c0.2-0.1,0.4-0.2,0.5-0.4c0.1-0.2,0.3-0.4,0.3-0.6C231.8,701.3,231.8,701,231.8,700.7
		z M231.2,700.6c0,0.2,0,0.4,0,0.5c0,0.2-0.1,0.3-0.2,0.5s-0.2,0.2-0.3,0.3c-0.1,0.1-0.3,0.1-0.5,0.1c-0.2,0-0.4,0-0.5-0.1
		c-0.1-0.1-0.3-0.2-0.3-0.3c-0.1-0.1-0.1-0.3-0.2-0.4c0-0.2-0.1-0.4-0.1-0.6c0-0.2,0-0.4,0-0.5c0-0.2,0.1-0.3,0.2-0.5
		c0.1-0.1,0.2-0.2,0.3-0.3c0.1-0.1,0.3-0.1,0.5-0.1c0.2,0,0.4,0,0.5,0.1c0.1,0.1,0.3,0.2,0.3,0.3s0.1,0.3,0.2,0.4
		C231.1,700.3,231.2,700.4,231.2,700.6z M238,698.9C238,698.9,238,698.9,238,698.9C238,698.8,237.9,698.8,238,698.9
		c-0.1-0.1-0.1-0.1-0.2-0.1c0,0-0.1,0-0.2,0s-0.1,0-0.2,0c0,0-0.1,0-0.1,0c0,0,0,0,0,0c0,0,0,0,0,0v2.1c0,0.2,0,0.3,0,0.4
		c0,0.1-0.1,0.2-0.1,0.3c-0.1,0.1-0.1,0.2-0.2,0.2c-0.1,0-0.2,0.1-0.3,0.1c-0.1,0-0.3,0-0.5-0.2c-0.1-0.1-0.3-0.3-0.5-0.5v-2.5
		c0,0,0,0,0,0c0,0,0,0,0,0c0,0-0.1,0-0.1,0c0,0-0.1,0-0.2,0s-0.1,0-0.1,0c0,0-0.1,0-0.1,0c0,0,0,0,0,0c0,0,0,0,0,0v2.1
		c0,0.1,0,0.3,0,0.4c0,0.1-0.1,0.2-0.1,0.3c-0.1,0.1-0.1,0.2-0.2,0.2c-0.1,0-0.2,0.1-0.3,0.1c-0.1,0-0.3,0-0.5-0.2
		c-0.1-0.1-0.3-0.3-0.5-0.5v-2.5c0,0,0,0,0,0c0,0,0,0,0,0c0,0-0.1,0-0.1,0c0,0-0.1,0-0.2,0c-0.1,0-0.1,0-0.2,0c0,0-0.1,0-0.1,0
		c0,0,0,0,0,0c0,0,0,0,0,0v3.5c0,0,0,0,0,0s0,0,0,0c0,0,0,0,0.1,0c0,0,0.1,0,0.1,0c0.1,0,0.1,0,0.1,0c0,0,0.1,0,0.1,0s0,0,0,0
		c0,0,0,0,0,0v-0.5c0.2,0.2,0.4,0.4,0.6,0.5c0.2,0.1,0.4,0.2,0.6,0.2c0.1,0,0.3,0,0.4,0c0.1,0,0.2-0.1,0.3-0.1s0.2-0.1,0.2-0.2
		c0.1-0.1,0.1-0.2,0.1-0.3c0.1,0.1,0.2,0.2,0.3,0.3c0.1,0.1,0.2,0.2,0.3,0.2c0.1,0,0.2,0.1,0.3,0.1c0.1,0,0.2,0,0.3,0
		c0.2,0,0.4,0,0.6-0.1c0.1-0.1,0.3-0.2,0.4-0.3c0.1-0.1,0.2-0.3,0.2-0.5s0.1-0.4,0.1-0.6V698.9z M242.6,700.7c0-0.3,0-0.6-0.1-0.8
		c-0.1-0.3-0.2-0.5-0.3-0.6c-0.1-0.2-0.3-0.3-0.5-0.4c-0.2-0.1-0.4-0.1-0.6-0.1c-0.1,0-0.2,0-0.3,0c-0.1,0-0.2,0-0.3,0.1
		c-0.1,0-0.2,0.1-0.3,0.2c-0.1,0.1-0.2,0.1-0.3,0.2v-1.8c0,0,0,0,0-0.1c0,0,0,0,0,0c0,0-0.1,0-0.1,0c0,0-0.1,0-0.2,0
		c-0.1,0-0.1,0-0.2,0c0,0-0.1,0-0.1,0c0,0,0,0,0,0c0,0,0,0,0,0.1v4.9c0,0,0,0,0,0c0,0,0,0,0,0c0,0,0,0,0.1,0c0,0,0.1,0,0.1,0
		c0,0,0.1,0,0.1,0c0,0,0.1,0,0.1,0s0,0,0,0c0,0,0,0,0,0v-0.5c0.1,0.1,0.2,0.2,0.3,0.3c0.1,0.1,0.2,0.1,0.3,0.2
		c0.1,0,0.2,0.1,0.3,0.1c0.1,0,0.2,0,0.3,0c0.3,0,0.5,0,0.7-0.1c0.2-0.1,0.3-0.2,0.4-0.4c0.1-0.2,0.2-0.4,0.2-0.6
		C242.6,701.2,242.6,701,242.6,700.7L242.6,700.7z M241.9,700.6c0,0.2,0,0.4,0,0.5s-0.1,0.3-0.1,0.5s-0.2,0.2-0.3,0.3
		c-0.1,0.1-0.3,0.1-0.4,0.1c-0.1,0-0.2,0-0.3,0c-0.1,0-0.2-0.1-0.2-0.1c-0.1,0-0.2-0.1-0.3-0.2c-0.1-0.1-0.2-0.2-0.3-0.3v-1.4
		c0.2-0.2,0.4-0.4,0.5-0.5c0.2-0.1,0.3-0.2,0.5-0.2c0.2,0,0.3,0,0.4,0.1c0.1,0.1,0.2,0.2,0.3,0.3c0.1,0.1,0.1,0.3,0.2,0.4
		C241.9,700.3,241.9,700.5,241.9,700.6z M244.2,698.9C244.2,698.9,244.2,698.9,244.2,698.9C244.2,698.8,244.2,698.8,244.2,698.9
		c-0.1-0.1-0.1-0.1-0.2-0.1c0,0-0.1,0-0.2,0c-0.1,0-0.1,0-0.2,0c0,0-0.1,0-0.1,0c0,0,0,0,0,0c0,0,0,0,0,0v5.2c0,0,0,0,0,0
		c0,0,0,0,0,0c0,0,0.1,0,0.1,0c0,0,0.1,0,0.2,0c0.1,0,0.1,0,0.2,0c0,0,0.1,0,0.1,0c0,0,0,0,0,0c0,0,0,0,0,0V698.9z M248.4,700.8
		c0-0.1,0-0.2-0.1-0.2c0,0-0.1-0.1-0.2-0.1h-2.3c0-0.2,0-0.4,0.1-0.5c0-0.2,0.1-0.3,0.2-0.4c0.1-0.1,0.2-0.2,0.4-0.3
		c0.1-0.1,0.3-0.1,0.5-0.1c0.2,0,0.3,0,0.5,0c0.1,0,0.2,0.1,0.3,0.1c0.1,0,0.2,0.1,0.2,0.1c0.1,0,0.1,0,0.1,0c0,0,0,0,0,0
		c0,0,0,0,0,0c0,0,0,0,0-0.1c0,0,0-0.1,0-0.1c0,0,0-0.1,0-0.1c0,0,0,0,0-0.1c0,0,0,0,0,0c0,0,0,0,0,0c0,0-0.1,0-0.1-0.1
		c-0.1,0-0.2-0.1-0.3-0.1c-0.1,0-0.2-0.1-0.4-0.1c-0.1,0-0.3,0-0.5,0c-0.3,0-0.5,0-0.8,0.1c-0.2,0.1-0.4,0.2-0.5,0.4
		c-0.1,0.2-0.3,0.4-0.3,0.6c-0.1,0.2-0.1,0.5-0.1,0.8s0,0.6,0.1,0.8s0.2,0.4,0.3,0.6c0.1,0.2,0.3,0.3,0.5,0.4s0.4,0.1,0.7,0.1
		c0.3,0,0.5,0,0.7-0.1c0.2-0.1,0.4-0.2,0.5-0.4c0.1-0.1,0.2-0.3,0.3-0.5c0.1-0.2,0.1-0.4,0.1-0.6V700.8z M247.7,701
		c0,0.3-0.1,0.6-0.2,0.8s-0.4,0.3-0.7,0.3c-0.2,0-0.3,0-0.4-0.1c-0.1-0.1-0.2-0.1-0.3-0.2c-0.1-0.1-0.1-0.2-0.2-0.4
		c0-0.1-0.1-0.3-0.1-0.4H247.7z M250.8,699.2c0-0.1,0-0.1,0-0.2c0,0,0-0.1,0-0.1s0,0-0.1-0.1c0,0-0.1,0-0.1,0c-0.1,0-0.1,0-0.2,0
		c-0.1,0-0.1,0-0.2,0c-0.2,0-0.3,0-0.5,0.1c-0.1,0-0.2,0.1-0.3,0.2c-0.1,0.1-0.1,0.2-0.2,0.4c0,0.2-0.1,0.3-0.1,0.5v2h-0.5
		c0,0-0.1,0-0.1,0.1c0,0,0,0.1,0,0.2c0,0,0,0.1,0,0.1c0,0,0,0.1,0,0.1c0,0,0,0,0,0c0,0,0,0,0.1,0h0.5v0.8c0,0,0,0,0,0c0,0,0,0,0,0
		c0,0,0.1,0,0.1,0c0,0,0.1,0,0.2,0s0.1,0,0.2,0c0,0,0.1,0,0.1,0c0,0,0,0,0,0c0,0,0,0,0,0v-0.8h0.9c0,0,0,0,0,0c0,0,0,0,0,0
		c0,0,0,0,0-0.1c0,0,0-0.1,0-0.1c0-0.1,0-0.2,0-0.2c0,0,0-0.1-0.1-0.1h-0.9v-2c0-0.2,0-0.4,0.1-0.5c0.1-0.1,0.2-0.2,0.4-0.2
		c0.1,0,0.1,0,0.2,0c0,0,0.1,0,0.1,0c0,0,0.1,0,0.1,0c0,0,0,0,0.1,0c0,0,0,0,0,0c0,0,0,0,0,0s0,0,0-0.1
		C250.8,699.2,250.8,699.2,250.8,699.2L250.8,699.2z M255,700.8c0-0.1,0-0.2-0.1-0.2c0,0-0.1-0.1-0.2-0.1h-2.3c0-0.2,0-0.4,0.1-0.5
		c0-0.2,0.1-0.3,0.2-0.4c0.1-0.1,0.2-0.2,0.4-0.3c0.1-0.1,0.3-0.1,0.5-0.1c0.2,0,0.3,0,0.5,0c0.1,0,0.2,0.1,0.3,0.1
		c0.1,0,0.2,0.1,0.2,0.1c0.1,0,0.1,0,0.1,0c0,0,0,0,0,0c0,0,0,0,0,0c0,0,0,0,0-0.1c0,0,0-0.1,0-0.1c0,0,0-0.1,0-0.1c0,0,0,0,0-0.1
		c0,0,0,0,0,0c0,0,0,0,0,0c0,0-0.1,0-0.1-0.1c-0.1,0-0.2-0.1-0.3-0.1c-0.1,0-0.2-0.1-0.4-0.1c-0.1,0-0.3,0-0.5,0
		c-0.3,0-0.5,0-0.8,0.1c-0.2,0.1-0.4,0.2-0.5,0.4c-0.1,0.2-0.3,0.4-0.3,0.6c-0.1,0.2-0.1,0.5-0.1,0.8s0,0.6,0.1,0.8s0.2,0.4,0.3,0.6
		c0.1,0.2,0.3,0.3,0.5,0.4s0.4,0.1,0.7,0.1c0.3,0,0.5,0,0.7-0.1c0.2-0.1,0.4-0.2,0.5-0.4c0.1-0.1,0.2-0.3,0.3-0.5
		c0.1-0.2,0.1-0.4,0.1-0.6V700.8z M254.3,701c0,0.3-0.1,0.6-0.2,0.8s-0.4,0.3-0.7,0.3c-0.2,0-0.3,0-0.4-0.1
		c-0.1-0.1-0.2-0.1-0.3-0.2c-0.1-0.1-0.1-0.2-0.2-0.4c0-0.1-0.1-0.3-0.1-0.4H254.3z M259.2,698.9
		C259.2,698.9,259.2,698.9,259.2,698.9C259.2,698.8,259.1,698.8,259.2,698.9c-0.1-0.1-0.1-0.1-0.1-0.1c0,0-0.1,0-0.1,0
		c-0.1,0-0.1,0-0.1,0c0,0-0.1,0-0.1,0s0,0,0,0c0,0,0,0,0,0v0.5c-0.2-0.2-0.4-0.4-0.6-0.5c-0.2-0.1-0.4-0.2-0.7-0.2
		c-0.3,0-0.5,0-0.7,0.1c-0.2,0.1-0.3,0.2-0.4,0.4c-0.1,0.2-0.2,0.4-0.3,0.6c0,0.2-0.1,0.5-0.1,0.7c0,0.3,0,0.6,0.1,0.8
		c0.1,0.3,0.2,0.5,0.3,0.6c0.1,0.2,0.3,0.3,0.5,0.4c0.2,0.1,0.4,0.1,0.6,0.1c0.2,0,0.4,0,0.6-0.1c0.2-0.1,0.3-0.2,0.5-0.4v2
		c0,0,0,0,0,0.1c0,0,0,0,0.1,0c0,0,0.1,0,0.1,0s0.1,0,0.1,0c0.1,0,0.1,0,0.2,0s0.1,0,0.1,0c0,0,0,0,0,0c0,0,0,0,0-0.1L259.2,698.9z
		 M258.5,701.4c-0.2,0.2-0.3,0.4-0.5,0.5c-0.2,0.1-0.3,0.2-0.5,0.2c-0.2,0-0.3,0-0.4-0.1c-0.1-0.1-0.2-0.2-0.3-0.3s-0.1-0.3-0.2-0.4
		c0-0.2,0-0.3,0-0.5c0-0.2,0-0.3,0-0.5c0-0.2,0.1-0.3,0.1-0.5c0.1-0.1,0.1-0.2,0.3-0.3c0.1-0.1,0.3-0.1,0.4-0.1c0.1,0,0.2,0,0.3,0
		c0.1,0,0.2,0.1,0.2,0.1c0.1,0.1,0.2,0.1,0.3,0.2c0.1,0.1,0.2,0.2,0.3,0.3V701.4z"/>
	<path id="path152" d="M235.5,688.8c0-0.1,0-0.1,0-0.1c0,0,0-0.1,0-0.1c0,0,0,0,0,0c0,0,0,0,0,0c0,0-0.1,0-0.3,0.1
		c-0.1,0-0.3,0.1-0.4,0.2c-0.1,0.1-0.3,0.2-0.5,0.3c-0.2,0.1-0.3,0.3-0.5,0.4c-0.1-0.1-0.3-0.1-0.5-0.2c-0.2-0.1-0.4-0.1-0.7-0.1
		c-0.4,0-0.7,0.1-1,0.2c-0.3,0.1-0.5,0.3-0.7,0.5c-0.2,0.2-0.3,0.5-0.4,0.8c-0.1,0.3-0.1,0.7-0.1,1.1c0,0.4,0,0.8,0.1,1.1
		c0.1,0.3,0.2,0.6,0.4,0.8c0.2,0.2,0.4,0.4,0.7,0.5c0.3,0.1,0.6,0.2,1,0.2c0.4,0,0.7,0,1-0.2c0.3-0.1,0.5-0.3,0.7-0.5
		c0.2-0.2,0.3-0.5,0.4-0.8c0.1-0.3,0.1-0.7,0.1-1.1c0-0.2,0-0.4,0-0.6c0-0.2-0.1-0.4-0.1-0.5c0-0.2-0.1-0.3-0.2-0.5
		c-0.1-0.1-0.2-0.3-0.3-0.4c0.2-0.2,0.4-0.3,0.5-0.4c0.1-0.1,0.3-0.2,0.4-0.2c0.1,0,0.2-0.1,0.2-0.1c0,0,0.1,0,0.1-0.1
		c0,0,0-0.1,0-0.1C235.5,688.9,235.5,688.8,235.5,688.8L235.5,688.8z M234.2,691.7c0,0.3,0,0.5-0.1,0.8c-0.1,0.3-0.1,0.5-0.3,0.6
		c-0.1,0.2-0.3,0.3-0.5,0.4c-0.2,0.1-0.5,0.1-0.7,0.1c-0.3,0-0.5-0.1-0.7-0.2c-0.2-0.1-0.4-0.3-0.5-0.4c-0.1-0.2-0.2-0.4-0.3-0.6
		s-0.1-0.5-0.1-0.8c0-0.3,0-0.6,0.1-0.8c0-0.3,0.1-0.5,0.3-0.6c0.1-0.2,0.3-0.3,0.5-0.4c0.2-0.1,0.4-0.1,0.7-0.1
		c0.3,0,0.5,0.1,0.7,0.2c0.2,0.1,0.4,0.3,0.5,0.4c0.1,0.2,0.2,0.4,0.3,0.7C234.1,691.2,234.2,691.5,234.2,691.7z M239,689.3
		C239,689.3,239,689.3,239,689.3C238.9,689.2,238.9,689.2,239,689.3c-0.1-0.1-0.1-0.1-0.1-0.1c0,0-0.1,0-0.1,0c-0.1,0-0.1,0-0.1,0
		c0,0-0.1,0-0.1,0s0,0,0,0c0,0,0,0,0,0v0.5c-0.2-0.2-0.4-0.4-0.6-0.5c-0.2-0.1-0.4-0.2-0.6-0.2c-0.2,0-0.4,0-0.6,0.1
		c-0.2,0.1-0.3,0.2-0.4,0.3c-0.1,0.1-0.2,0.3-0.2,0.5c0,0.2-0.1,0.4-0.1,0.6v2.1c0,0,0,0,0,0c0,0,0,0,0.1,0c0,0,0.1,0,0.1,0
		c0,0,0.1,0,0.2,0c0.1,0,0.1,0,0.1,0c0,0,0.1,0,0.1,0c0,0,0,0,0,0c0,0,0,0,0,0v-2c0-0.2,0-0.4,0-0.5c0-0.1,0.1-0.2,0.1-0.3
		c0.1-0.1,0.1-0.2,0.2-0.2c0.1,0,0.2-0.1,0.3-0.1c0.2,0,0.3,0.1,0.5,0.2c0.2,0.1,0.3,0.3,0.5,0.5v2.5c0,0,0,0,0,0c0,0,0,0,0,0
		s0.1,0,0.1,0c0,0,0.1,0,0.2,0c0.1,0,0.1,0,0.1,0c0,0,0.1,0,0.1,0c0,0,0,0,0,0c0,0,0,0,0,0L239,689.3z M242.8,689.3
		C242.8,689.3,242.8,689.2,242.8,689.3c0-0.1-0.1-0.1-0.1-0.1c0,0-0.1,0-0.2,0s-0.1,0-0.2,0s-0.1,0-0.1,0c0,0,0,0,0,0.1v0.4
		c-0.1-0.2-0.3-0.3-0.5-0.4c-0.2-0.1-0.4-0.1-0.6-0.1c-0.2,0-0.4,0-0.5,0.1c-0.1,0-0.3,0.1-0.4,0.2c-0.1,0.1-0.2,0.2-0.3,0.3
		c-0.1,0.1-0.1,0.3-0.1,0.5c0,0.2,0,0.4,0.1,0.5c0.1,0.1,0.2,0.3,0.4,0.4c0.1,0.1,0.3,0.2,0.6,0.2c0.2,0,0.5,0.1,0.7,0.1h0.5v0.3
		c0,0.1,0,0.3,0,0.4c0,0.1-0.1,0.2-0.1,0.3c-0.1,0.1-0.1,0.1-0.3,0.2c-0.1,0-0.2,0-0.4,0c-0.2,0-0.3,0-0.4-0.1
		c-0.1,0-0.2-0.1-0.3-0.1c-0.1,0-0.2-0.1-0.2-0.1c-0.1,0-0.1,0-0.1,0c0,0,0,0,0,0c0,0,0,0,0,0c0,0,0,0,0,0.1c0,0,0,0.1,0,0.1
		c0,0.1,0,0.1,0,0.2c0,0,0,0.1,0.1,0.1c0,0,0.1,0.1,0.2,0.1c0.1,0,0.2,0.1,0.3,0.1c0.1,0,0.2,0.1,0.4,0.1c0.1,0,0.3,0,0.4,0
		c0.3,0,0.5,0,0.6-0.1c0.2-0.1,0.3-0.1,0.4-0.3c0.1-0.1,0.2-0.2,0.2-0.4c0-0.2,0.1-0.4,0.1-0.6L242.8,689.3z M242.2,690.9h-0.5
		c-0.2,0-0.3,0-0.5,0c-0.1,0-0.2-0.1-0.3-0.1c-0.1-0.1-0.1-0.1-0.2-0.2c0-0.1-0.1-0.2-0.1-0.3c0-0.2,0.1-0.3,0.2-0.4
		c0.1-0.1,0.3-0.2,0.5-0.2c0.2,0,0.3,0,0.5,0.1c0.1,0.1,0.3,0.2,0.5,0.4L242.2,690.9z M244.4,689.3
		C244.4,689.3,244.4,689.3,244.4,689.3C244.4,689.2,244.4,689.2,244.4,689.3c-0.1-0.1-0.1-0.1-0.2-0.1c0,0-0.1,0-0.2,0
		c-0.1,0-0.1,0-0.2,0c0,0-0.1,0-0.1,0c0,0,0,0,0,0c0,0,0,0,0,0v5.2c0,0,0,0,0,0c0,0,0,0,0,0c0,0,0.1,0,0.1,0c0,0,0.1,0,0.2,0
		c0.1,0,0.1,0,0.2,0c0,0,0.1,0,0.1,0c0,0,0,0,0,0c0,0,0,0,0,0V689.3z M246.2,689.3C246.2,689.3,246.2,689.3,246.2,689.3
		C246.2,689.2,246.1,689.2,246.2,689.3c-0.1-0.1-0.1-0.1-0.2-0.1c0,0-0.1,0-0.2,0c-0.1,0-0.1,0-0.2,0c0,0-0.1,0-0.1,0c0,0,0,0,0,0
		c0,0,0,0,0,0v3.5c0,0,0,0,0,0c0,0,0,0,0,0c0,0,0.1,0,0.1,0c0,0,0.1,0,0.2,0c0.1,0,0.1,0,0.2,0s0.1,0,0.1,0c0,0,0,0,0,0c0,0,0,0,0,0
		V689.3z M246.3,694c0-0.1,0-0.3-0.1-0.3c0-0.1-0.2-0.1-0.3-0.1s-0.3,0-0.3,0.1c-0.1,0.1-0.1,0.2-0.1,0.3c0,0.2,0,0.3,0.1,0.3
		c0.1,0,0.2,0.1,0.3,0.1c0.2,0,0.3,0,0.3-0.1C246.2,694.2,246.3,694.1,246.3,694z M249.2,689.6c0-0.1,0-0.1,0-0.2c0,0,0-0.1,0-0.1
		c0,0-0.1,0-0.1-0.1c0,0-0.1,0-0.1,0c0,0-0.1,0-0.2,0c-0.1,0-0.1,0-0.2,0c-0.2,0-0.3,0-0.5,0.1c-0.1,0-0.2,0.1-0.3,0.2
		c-0.1,0.1-0.1,0.2-0.2,0.4c0,0.2-0.1,0.3-0.1,0.5v2H247c0,0-0.1,0-0.1,0.1c0,0,0,0.1,0,0.2c0,0,0,0.1,0,0.1c0,0,0,0.1,0,0.1
		c0,0,0,0,0,0c0,0,0,0,0,0h0.5v0.8c0,0,0,0,0,0.1c0,0,0,0,0,0c0,0,0.1,0,0.1,0c0,0,0.1,0,0.1,0c0.1,0,0.1,0,0.2,0c0,0,0.1,0,0.1,0
		c0,0,0,0,0,0c0,0,0,0,0-0.1v-0.8h0.9c0,0,0,0,0,0c0,0,0,0,0,0c0,0,0,0,0-0.1c0,0,0-0.1,0-0.1c0-0.1,0-0.2,0-0.2c0,0,0-0.1-0.1-0.1
		h-0.9v-2c0-0.2,0-0.4,0.1-0.5c0.1-0.1,0.2-0.2,0.4-0.2c0.1,0,0.1,0,0.2,0c0,0,0.1,0,0.1,0c0,0,0.1,0,0.1,0c0,0,0,0,0.1,0
		c0,0,0,0,0,0c0,0,0,0,0,0c0,0,0,0,0-0.1C249.2,689.6,249.2,689.6,249.2,689.6L249.2,689.6z M251.9,689.2l-0.5-1.3
		c0,0,0-0.1-0.1-0.1c-0.1,0-0.2,0-0.3,0c-0.1,0-0.1,0-0.2,0s-0.1,0-0.1,0c0,0,0,0,0,0.1c0,0,0,0,0,0.1l0.5,1.2c0,0,0,0-0.1,0
		c0,0,0,0,0,0.1l-1.3,3.4c0,0,0,0.1,0,0.1c0,0,0,0,0,0.1c0,0,0,0,0.1,0c0,0,0.1,0,0.2,0c0.1,0,0.1,0,0.2,0c0,0,0.1,0,0.1,0
		c0,0,0,0,0.1,0c0,0,0,0,0-0.1l1-2.8h0l1,2.8c0,0,0,0.1,0.1,0.1c0,0,0,0,0.1,0c0,0,0.1,0,0.2,0c0.1,0,0.1,0,0.2,0c0,0,0.1,0,0.1,0
		c0,0,0,0,0-0.1c0,0,0-0.1,0-0.1L251.9,689.2z"/>
	<path id="path154" d="M220.8,682.2c0-0.4,0-0.8-0.2-1.1c-0.1-0.3-0.3-0.6-0.5-0.8c-0.2-0.2-0.5-0.4-0.8-0.5
		c-0.3-0.1-0.7-0.2-1.1-0.2h-1.1c-0.1,0-0.1,0-0.2,0.1c-0.1,0-0.1,0.1-0.1,0.2v4.5c0,0.1,0,0.2,0.1,0.2c0,0,0.1,0.1,0.2,0.1h1.1
		c0.4,0,0.8-0.1,1.1-0.2s0.5-0.3,0.8-0.5c0.2-0.2,0.4-0.5,0.5-0.8C220.8,682.9,220.8,682.6,220.8,682.2L220.8,682.2z M220.1,682.2
		c0,0.3,0,0.5-0.1,0.8c-0.1,0.2-0.2,0.4-0.3,0.6c-0.1,0.2-0.3,0.3-0.5,0.4c-0.2,0.1-0.5,0.1-0.9,0.1h-0.7v-3.9h0.7
		c0.3,0,0.6,0,0.8,0.1c0.2,0.1,0.4,0.2,0.6,0.4c0.1,0.2,0.3,0.4,0.3,0.6C220.1,681.5,220.1,681.8,220.1,682.2L220.1,682.2z
		 M224.9,681.5c0-0.3,0-0.5-0.1-0.8c-0.1-0.2-0.2-0.5-0.3-0.6c-0.1-0.2-0.3-0.3-0.6-0.4c-0.2-0.1-0.5-0.2-0.8-0.2
		c-0.3,0-0.5,0-0.8,0.1c-0.2,0.1-0.4,0.2-0.5,0.4c-0.1,0.2-0.3,0.4-0.3,0.6c-0.1,0.2-0.1,0.5-0.1,0.8c0,0.3,0,0.5,0.1,0.8
		c0.1,0.2,0.2,0.5,0.3,0.6c0.1,0.2,0.3,0.3,0.6,0.4c0.2,0.1,0.5,0.1,0.8,0.1c0.3,0,0.5,0,0.8-0.1c0.2-0.1,0.4-0.2,0.5-0.4
		c0.1-0.2,0.3-0.4,0.3-0.6C224.9,682.1,224.9,681.8,224.9,681.5z M224.3,681.5c0,0.2,0,0.4,0,0.5c0,0.2-0.1,0.3-0.2,0.5
		c-0.1,0.1-0.2,0.2-0.3,0.3c-0.1,0.1-0.3,0.1-0.5,0.1c-0.2,0-0.4,0-0.5-0.1c-0.1-0.1-0.3-0.2-0.3-0.3c-0.1-0.1-0.2-0.3-0.2-0.4
		c0-0.2-0.1-0.4-0.1-0.6c0-0.2,0-0.4,0.1-0.5c0-0.2,0.1-0.3,0.2-0.5c0.1-0.1,0.2-0.2,0.3-0.3c0.1-0.1,0.3-0.1,0.5-0.1
		c0.2,0,0.4,0,0.5,0.1c0.1,0.1,0.3,0.2,0.3,0.3s0.2,0.3,0.2,0.4C224.3,681.1,224.3,681.2,224.3,681.5L224.3,681.5z M228.4,680.2
		c0,0,0-0.1,0-0.1c0,0,0-0.1,0-0.1c0,0,0,0,0-0.1c0,0,0,0-0.1-0.1c0,0-0.1-0.1-0.2-0.1c-0.1,0-0.2-0.1-0.3-0.1
		c-0.1,0-0.2-0.1-0.3-0.1c-0.1,0-0.2,0-0.4,0c-0.3,0-0.5,0-0.7,0.1c-0.2,0.1-0.4,0.2-0.5,0.4c-0.1,0.2-0.2,0.4-0.3,0.6
		c-0.1,0.2-0.1,0.5-0.1,0.8c0,0.3,0,0.6,0.1,0.9c0.1,0.3,0.2,0.5,0.4,0.6s0.3,0.3,0.5,0.3c0.2,0.1,0.4,0.1,0.6,0.1
		c0.1,0,0.2,0,0.3,0c0.1,0,0.2,0,0.3-0.1c0.1,0,0.2-0.1,0.2-0.1c0.1,0,0.1-0.1,0.1-0.1c0,0,0-0.1,0.1-0.1c0,0,0,0,0-0.1
		c0,0,0-0.1,0-0.1c0,0,0-0.1,0-0.1c0-0.1,0-0.2,0-0.2c0,0,0-0.1-0.1-0.1s-0.1,0-0.1,0.1c0,0-0.1,0.1-0.2,0.1c-0.1,0-0.2,0.1-0.3,0.1
		c-0.1,0-0.2,0.1-0.4,0.1c-0.3,0-0.5-0.1-0.7-0.4c-0.2-0.2-0.2-0.6-0.2-1c0-0.2,0-0.4,0.1-0.6c0-0.2,0.1-0.3,0.2-0.4
		c0.1-0.1,0.2-0.2,0.3-0.3c0.1,0,0.3-0.1,0.4-0.1s0.3,0,0.4,0.1c0.1,0,0.2,0.1,0.3,0.2c0.1,0.1,0.2,0.1,0.2,0.2
		c0.1,0,0.1,0.1,0.1,0.1c0,0,0,0,0,0c0,0,0,0,0,0c0,0,0-0.1,0-0.1C228.4,680.3,228.4,680.3,228.4,680.2L228.4,680.2z M232.5,679.7
		C232.5,679.7,232.5,679.7,232.5,679.7C232.5,679.6,232.4,679.6,232.5,679.7c-0.1-0.1-0.1-0.1-0.1-0.1c0,0-0.1,0-0.1,0
		c-0.1,0-0.1,0-0.1,0c0,0-0.1,0-0.1,0c0,0,0,0,0,0c0,0,0,0,0,0v0.5c-0.2-0.2-0.4-0.4-0.6-0.5c-0.2-0.1-0.4-0.2-0.6-0.2
		c-0.2,0-0.4,0-0.6,0.1c-0.2,0.1-0.3,0.2-0.4,0.3c-0.1,0.1-0.2,0.3-0.2,0.5c0,0.2-0.1,0.4-0.1,0.6v2.1c0,0,0,0,0,0c0,0,0,0,0,0
		c0,0,0.1,0,0.1,0c0,0,0.1,0,0.2,0c0.1,0,0.1,0,0.1,0c0,0,0.1,0,0.1,0c0,0,0,0,0,0c0,0,0,0,0,0v-2c0-0.2,0-0.4,0-0.5
		c0-0.1,0.1-0.2,0.1-0.3c0.1-0.1,0.1-0.2,0.2-0.2c0.1,0,0.2-0.1,0.3-0.1c0.2,0,0.3,0.1,0.5,0.2c0.2,0.1,0.3,0.3,0.5,0.5v2.5
		c0,0,0,0,0,0c0,0,0,0,0,0s0.1,0,0.1,0c0,0,0.1,0,0.2,0c0.1,0,0.1,0,0.1,0c0,0,0.1,0,0.1,0c0,0,0,0,0.1,0c0,0,0,0,0,0L232.5,679.7z
		 M238.9,679.7C238.9,679.7,238.9,679.7,238.9,679.7C238.9,679.6,238.8,679.6,238.9,679.7c-0.1-0.1-0.1-0.1-0.2-0.1c0,0-0.1,0-0.1,0
		c-0.1,0-0.1,0-0.2,0c0,0-0.1,0-0.1,0c0,0,0,0-0.1,0c0,0,0,0,0,0v2.1c0,0.2,0,0.3,0,0.4c0,0.1-0.1,0.2-0.1,0.3
		c0,0.1-0.1,0.2-0.2,0.2c-0.1,0-0.2,0.1-0.3,0.1c-0.1,0-0.3,0-0.5-0.2c-0.1-0.1-0.3-0.3-0.5-0.5v-2.5c0,0,0,0,0,0c0,0,0,0-0.1,0
		c0,0-0.1,0-0.1,0c0,0-0.1,0-0.1,0s-0.1,0-0.2,0c0,0-0.1,0-0.1,0c0,0,0,0,0,0c0,0,0,0,0,0v2.1c0,0.1,0,0.3,0,0.4
		c0,0.1-0.1,0.2-0.1,0.3c0,0.1-0.1,0.2-0.2,0.2c-0.1,0-0.2,0.1-0.3,0.1c-0.1,0-0.3,0-0.5-0.2c-0.1-0.1-0.3-0.3-0.5-0.5v-2.5
		c0,0,0,0,0,0c0,0,0,0,0,0s-0.1,0-0.1,0c0,0-0.1,0-0.2,0c-0.1,0-0.1,0-0.1,0c0,0-0.1,0-0.1,0c0,0,0,0-0.1,0c0,0,0,0,0,0v3.5
		c0,0,0,0,0,0s0,0,0,0s0,0,0.1,0c0,0,0.1,0,0.1,0c0.1,0,0.1,0,0.1,0c0,0,0.1,0,0.1,0c0,0,0,0,0,0c0,0,0,0,0,0v-0.5
		c0.2,0.2,0.4,0.4,0.6,0.5c0.2,0.1,0.4,0.2,0.6,0.2c0.1,0,0.3,0,0.4,0c0.1,0,0.2-0.1,0.3-0.1s0.2-0.1,0.2-0.2
		c0.1-0.1,0.1-0.2,0.2-0.3c0.1,0.1,0.2,0.2,0.3,0.3c0.1,0.1,0.2,0.2,0.3,0.2c0.1,0,0.2,0.1,0.3,0.1c0.1,0,0.2,0,0.3,0
		c0.2,0,0.4,0,0.6-0.1c0.1-0.1,0.3-0.2,0.4-0.3c0.1-0.1,0.2-0.3,0.2-0.5c0-0.2,0.1-0.4,0.1-0.6L238.9,679.7z M243.3,681.6
		c0-0.1,0-0.2-0.1-0.2c0,0-0.1-0.1-0.2-0.1h-2.3c0-0.2,0-0.4,0.1-0.5c0-0.2,0.1-0.3,0.2-0.4c0.1-0.1,0.2-0.2,0.4-0.3
		c0.1-0.1,0.3-0.1,0.5-0.1c0.2,0,0.3,0,0.5,0c0.1,0,0.3,0.1,0.3,0.1c0.1,0,0.2,0.1,0.2,0.1c0.1,0,0.1,0,0.1,0c0,0,0,0,0,0
		c0,0,0,0,0,0c0,0,0,0,0-0.1c0,0,0-0.1,0-0.1c0,0,0-0.1,0-0.1c0,0,0,0,0-0.1c0,0,0,0,0,0c0,0,0,0,0,0c0,0,0,0-0.1-0.1
		c-0.1,0-0.2-0.1-0.3-0.1c-0.1,0-0.2-0.1-0.4-0.1c-0.1,0-0.3,0-0.5,0c-0.3,0-0.5,0-0.8,0.1c-0.2,0.1-0.4,0.2-0.5,0.4
		c-0.1,0.2-0.3,0.4-0.3,0.6c-0.1,0.2-0.1,0.5-0.1,0.8s0,0.6,0.1,0.8c0.1,0.2,0.2,0.4,0.3,0.6c0.1,0.2,0.3,0.3,0.5,0.4
		c0.2,0.1,0.5,0.1,0.7,0.1c0.3,0,0.5,0,0.7-0.1c0.2-0.1,0.4-0.2,0.5-0.4c0.1-0.1,0.2-0.3,0.3-0.5c0.1-0.2,0.1-0.4,0.1-0.7
		L243.3,681.6z M242.6,681.8c0,0.3-0.1,0.6-0.2,0.8c-0.2,0.2-0.4,0.3-0.7,0.3c-0.2,0-0.3,0-0.4-0.1c-0.1-0.1-0.2-0.1-0.3-0.2
		c-0.1-0.1-0.1-0.2-0.2-0.3c0-0.1-0.1-0.3-0.1-0.4H242.6z M246.9,679.7C246.9,679.7,246.9,679.7,246.9,679.7
		C246.9,679.6,246.9,679.6,246.9,679.7c-0.1-0.1-0.1-0.1-0.2-0.1c0,0-0.1,0-0.1,0c-0.1,0-0.1,0-0.2,0c0,0-0.1,0-0.1,0c0,0,0,0,0,0
		c0,0,0,0,0,0v2.1c0,0.2,0,0.4,0,0.5c0,0.1-0.1,0.2-0.1,0.3c-0.1,0.1-0.1,0.2-0.2,0.2c-0.1,0-0.2,0.1-0.3,0.1c-0.2,0-0.3,0-0.5-0.2
		c-0.2-0.1-0.3-0.3-0.5-0.5v-2.5c0,0,0,0,0,0c0,0,0,0,0,0s-0.1,0-0.1,0c0,0-0.1,0-0.2,0c-0.1,0-0.1,0-0.1,0c0,0-0.1,0-0.1,0
		c0,0,0,0-0.1,0c0,0,0,0,0,0v3.5c0,0,0,0,0,0c0,0,0,0,0,0s0,0,0.1,0c0,0,0.1,0,0.1,0c0.1,0,0.1,0,0.1,0c0,0,0.1,0,0.1,0c0,0,0,0,0,0
		c0,0,0,0,0,0v-0.5c0.2,0.2,0.4,0.4,0.6,0.5c0.2,0.1,0.4,0.1,0.6,0.1c0.2,0,0.4,0,0.6-0.1c0.2-0.1,0.3-0.2,0.4-0.3
		c0.1-0.1,0.2-0.3,0.2-0.5c0-0.2,0.1-0.4,0.1-0.6L246.9,679.7z M249.9,680c0-0.1,0-0.1,0-0.2c0,0,0-0.1,0-0.1c0,0-0.1,0-0.1-0.1
		c0,0-0.1,0-0.1,0c0,0-0.1,0-0.2,0c-0.1,0-0.1,0-0.2,0c-0.2,0-0.3,0-0.5,0.1c-0.1,0-0.2,0.1-0.3,0.2c-0.1,0.1-0.1,0.2-0.2,0.4
		c0,0.2-0.1,0.3-0.1,0.5v2h-0.5c0,0-0.1,0-0.1,0.1c0,0,0,0.1,0,0.2c0,0,0,0.1,0,0.1c0,0,0,0.1,0,0.1c0,0,0,0,0,0c0,0,0,0,0.1,0h0.5
		v0.8c0,0,0,0,0,0.1c0,0,0,0,0,0c0,0,0.1,0,0.1,0c0,0,0.1,0,0.1,0c0.1,0,0.1,0,0.2,0c0,0,0.1,0,0.1,0c0,0,0,0,0,0c0,0,0,0,0-0.1
		v-0.8h0.9c0,0,0,0,0,0c0,0,0,0,0,0c0,0,0,0,0-0.1c0,0,0-0.1,0-0.1c0-0.1,0-0.2,0-0.2c0,0,0-0.1-0.1-0.1h-0.9v-2
		c0-0.2,0-0.4,0.1-0.5c0.1-0.1,0.2-0.2,0.4-0.2c0.1,0,0.1,0,0.2,0c0,0,0.1,0,0.1,0c0,0,0.1,0,0.1,0c0,0,0,0,0.1,0c0,0,0,0,0,0
		c0,0,0,0,0,0c0,0,0,0,0-0.1C249.9,680,249.9,680,249.9,680L249.9,680z M253.7,679.7C253.7,679.7,253.7,679.6,253.7,679.7
		c0-0.1-0.1-0.1-0.1-0.1c0,0-0.1,0-0.2,0s-0.1,0-0.2,0s-0.1,0-0.1,0c0,0,0,0,0,0.1v0.4c-0.1-0.2-0.3-0.3-0.5-0.4
		c-0.2-0.1-0.4-0.1-0.6-0.1c-0.2,0-0.4,0-0.5,0.1c-0.1,0-0.3,0.1-0.4,0.2c-0.1,0.1-0.2,0.2-0.3,0.3c-0.1,0.1-0.1,0.3-0.1,0.5
		c0,0.2,0,0.4,0.1,0.5c0.1,0.1,0.2,0.3,0.4,0.4c0.1,0.1,0.3,0.2,0.6,0.2c0.2,0,0.5,0.1,0.7,0.1h0.5v0.3c0,0.1,0,0.3,0,0.4
		c0,0.1-0.1,0.2-0.1,0.3c-0.1,0.1-0.1,0.1-0.3,0.2c-0.1,0-0.2,0-0.4,0s-0.3,0-0.4-0.1c-0.1,0-0.2-0.1-0.3-0.1
		c-0.1,0-0.2-0.1-0.2-0.1c-0.1,0-0.1,0-0.1,0c0,0,0,0,0,0c0,0,0,0,0,0c0,0,0,0,0,0.1c0,0,0,0.1,0,0.1c0,0.1,0,0.1,0,0.2
		c0,0,0,0.1,0.1,0.1c0,0,0.1,0.1,0.2,0.1c0.1,0,0.2,0.1,0.3,0.1c0.1,0,0.2,0.1,0.4,0.1c0.1,0,0.3,0,0.4,0c0.3,0,0.5,0,0.6-0.1
		c0.2-0.1,0.3-0.1,0.4-0.3c0.1-0.1,0.2-0.2,0.2-0.4c0-0.2,0.1-0.4,0.1-0.6L253.7,679.7z M253.1,681.3h-0.5c-0.2,0-0.3,0-0.5,0
		c-0.1,0-0.2-0.1-0.3-0.1c-0.1-0.1-0.1-0.1-0.2-0.2c0-0.1-0.1-0.2-0.1-0.3c0-0.2,0.1-0.3,0.2-0.4c0.1-0.1,0.3-0.2,0.5-0.2
		c0.2,0,0.3,0,0.5,0.1c0.1,0.1,0.3,0.2,0.5,0.4L253.1,681.3z M256.5,680c0-0.1,0-0.1,0-0.2c0,0,0-0.1,0-0.1c0,0-0.1,0-0.1-0.1
		c0,0-0.1,0-0.1,0c0,0-0.1,0-0.2,0c-0.1,0-0.1,0-0.2,0c-0.2,0-0.3,0-0.5,0.1c-0.1,0-0.2,0.1-0.3,0.2c-0.1,0.1-0.1,0.2-0.2,0.4
		c0,0.2-0.1,0.3-0.1,0.5v2h-0.5c0,0-0.1,0-0.1,0.1c0,0,0,0.1,0,0.2c0,0,0,0.1,0,0.1c0,0,0,0.1,0,0.1c0,0,0,0,0,0c0,0,0,0,0.1,0h0.5
		v0.8c0,0,0,0,0,0.1c0,0,0,0,0,0c0,0,0.1,0,0.1,0c0,0,0.1,0,0.1,0c0.1,0,0.1,0,0.2,0c0,0,0.1,0,0.1,0c0,0,0,0,0,0c0,0,0,0,0-0.1
		v-0.8h0.9c0,0,0,0,0,0c0,0,0,0,0,0c0,0,0,0,0-0.1c0,0,0-0.1,0-0.1c0-0.1,0-0.2,0-0.2c0,0,0-0.1-0.1-0.1h-0.9v-2
		c0-0.2,0-0.4,0.1-0.5c0.1-0.1,0.2-0.2,0.4-0.2c0.1,0,0.1,0,0.2,0c0,0,0.1,0,0.1,0c0,0,0.1,0,0.1,0c0,0,0,0,0.1,0c0,0,0,0,0,0
		c0,0,0,0,0,0c0,0,0,0,0-0.1C256.5,680,256.5,680,256.5,680L256.5,680z M257.7,679.7C257.7,679.7,257.7,679.7,257.7,679.7
		C257.7,679.6,257.7,679.6,257.7,679.7c-0.1-0.1-0.1-0.1-0.2-0.1c0,0-0.1,0-0.2,0c-0.1,0-0.1,0-0.1,0c0,0-0.1,0-0.1,0c0,0,0,0-0.1,0
		c0,0,0,0,0,0v3.5c0,0,0,0,0,0c0,0,0,0,0.1,0c0,0,0,0,0.1,0c0,0,0.1,0,0.1,0c0.1,0,0.1,0,0.2,0c0,0,0.1,0,0.1,0c0,0,0,0,0,0
		c0,0,0,0,0,0V679.7z M257.8,684.4c0-0.1,0-0.3-0.1-0.3c0-0.1-0.2-0.1-0.3-0.1s-0.3,0-0.3,0.1c-0.1,0.1-0.1,0.2-0.1,0.3
		c0,0.2,0,0.3,0.1,0.3c0.1,0,0.2,0.1,0.3,0.1c0.1,0,0.3,0,0.3-0.1C257.8,684.6,257.8,684.5,257.8,684.4z M262.7,681.5
		c0-0.3,0-0.5-0.1-0.8c-0.1-0.2-0.2-0.5-0.3-0.6c-0.1-0.2-0.3-0.3-0.6-0.4c-0.2-0.1-0.5-0.2-0.8-0.2c-0.3,0-0.5,0-0.8,0.1
		c-0.2,0.1-0.4,0.2-0.5,0.4c-0.1,0.2-0.3,0.4-0.3,0.6c-0.1,0.2-0.1,0.5-0.1,0.8c0,0.3,0,0.5,0.1,0.8c0.1,0.2,0.2,0.5,0.3,0.6
		c0.1,0.2,0.3,0.3,0.6,0.4c0.2,0.1,0.5,0.1,0.8,0.1c0.3,0,0.5,0,0.8-0.1c0.2-0.1,0.4-0.2,0.5-0.4c0.1-0.2,0.3-0.4,0.3-0.6
		C262.7,682.1,262.7,681.8,262.7,681.5z M262.1,681.5c0,0.2,0,0.4,0,0.5c0,0.2-0.1,0.3-0.2,0.5c-0.1,0.1-0.2,0.2-0.3,0.3
		c-0.1,0.1-0.3,0.1-0.5,0.1c-0.2,0-0.4,0-0.5-0.1c-0.1-0.1-0.3-0.2-0.3-0.3c-0.1-0.1-0.2-0.3-0.2-0.4c0-0.2-0.1-0.4-0.1-0.6
		c0-0.2,0-0.4,0.1-0.5c0-0.2,0.1-0.3,0.2-0.5c0.1-0.1,0.2-0.2,0.3-0.3c0.1-0.1,0.3-0.1,0.5-0.1c0.2,0,0.4,0,0.5,0.1
		c0.1,0.1,0.3,0.2,0.3,0.3s0.2,0.3,0.2,0.4C262.1,681.1,262.1,681.2,262.1,681.5L262.1,681.5z M266.7,679.7
		C266.7,679.7,266.7,679.7,266.7,679.7C266.7,679.6,266.7,679.6,266.7,679.7c-0.1-0.1-0.1-0.1-0.2-0.1c0,0-0.1,0-0.1,0
		c-0.1,0-0.1,0-0.2,0c0,0-0.1,0-0.1,0c0,0,0,0,0,0c0,0,0,0,0,0v2.1c0,0.2,0,0.4,0,0.5c0,0.1-0.1,0.2-0.1,0.3
		c-0.1,0.1-0.1,0.2-0.2,0.2c-0.1,0-0.2,0.1-0.3,0.1c-0.2,0-0.3,0-0.5-0.2c-0.2-0.1-0.3-0.3-0.5-0.5v-2.5c0,0,0,0,0,0c0,0,0,0,0,0
		s-0.1,0-0.1,0c0,0-0.1,0-0.2,0c-0.1,0-0.1,0-0.1,0c0,0-0.1,0-0.1,0c0,0,0,0-0.1,0c0,0,0,0,0,0v3.5c0,0,0,0,0,0c0,0,0,0,0,0
		s0,0,0.1,0c0,0,0.1,0,0.1,0c0.1,0,0.1,0,0.1,0c0,0,0.1,0,0.1,0c0,0,0,0,0,0c0,0,0,0,0,0v-0.5c0.2,0.2,0.4,0.4,0.6,0.5
		c0.2,0.1,0.4,0.1,0.6,0.1c0.2,0,0.4,0,0.6-0.1c0.2-0.1,0.3-0.2,0.4-0.3c0.1-0.1,0.2-0.3,0.2-0.5c0-0.2,0.1-0.4,0.1-0.6L266.7,679.7
		z"/>
	<g id="g156">
		<g>
			<defs>
				<polyline id="SVGID_23_" points="-157.5,997.5 454.5,997.5 454.5,205.5 -157.5,205.5 				"/>
			</defs>
			<clipPath id="SVGID_24_">
				<use xlink:href="#SVGID_23_"  style="overflow:visible;"/>
			</clipPath>
			<g id="g158" class="st18">
				<path id="path164" class="st11" d="M134.5,489.9v170"/>
			</g>
		</g>
	</g>
	<g id="g166">
		<g>
			<defs>
				<polyline id="SVGID_25_" points="-157.5,997.5 454.5,997.5 454.5,205.5 -157.5,205.5 				"/>
			</defs>
			<clipPath id="SVGID_26_">
				<use xlink:href="#SVGID_25_"  style="overflow:visible;"/>
			</clipPath>
			<g id="g168" class="st19">
				<path id="path174" class="st12" d="M131.8,659.2l2.8,5.5l2.8-5.5H131.8z"/>
			</g>
		</g>
	</g>
	<g id="g176">
		<g>
			<defs>
				<polyline id="SVGID_27_" points="-157.5,997.5 454.5,997.5 454.5,205.5 -157.5,205.5 				"/>
			</defs>
			<clipPath id="SVGID_28_">
				<use xlink:href="#SVGID_27_"  style="overflow:visible;"/>
			</clipPath>
			<g id="g178" class="st20">
				<path id="path184" class="st2" d="M117.8,558.1h33.5v38.4h-33.5V558.1z"/>
			</g>
		</g>
	</g>
	<g id="g186">
		<g>
			<defs>
				<rect id="SVGID_29_" x="-259.5" y="73.5" width="816" height="1056"/>
			</defs>
			<clipPath id="SVGID_30_">
				<use xlink:href="#SVGID_29_"  style="overflow:visible;"/>
			</clipPath>
			<g id="g188" class="st21">
				<text transform="matrix(0.75 0 0 -0.75 118.0701 588.9801)" class="st4 st14">E</text>
				<text transform="matrix(0.75 0 0 -0.75 122.2588 588.9801)" class="st4 st14">n</text>
				<text transform="matrix(0.75 0 0 -0.75 126.4468 588.9801)" class="st4 st14">t</text>
				<text transform="matrix(0.75 0 0 -0.75 128.8491 588.9801)" class="st4 st14">e</text>
				<text transform="matrix(0.75 0 0 -0.75 133.0386 588.9801)" class="st4 st14">r</text>
				<text transform="matrix(0.75 0 0 -0.75 135.4409 588.9801)" class="st4 st14">p</text>
				<text transform="matrix(0.75 0 0 -0.75 139.6289 588.9801)" class="st4 st14">r</text>
				<text transform="matrix(0.75 0 0 -0.75 142.6245 588.9801)" class="st4 st14">i</text>
				<text transform="matrix(0.75 0 0 -0.75 144.4182 588.9801)" class="st4 st14">s</text>
				<text transform="matrix(0.75 0 0 -0.75 147.4211 588.9801)" class="st4 st14">e</text>
				<text transform="matrix(0.75 0 0 -0.75 151.6099 588.9801)" class="st4 st14"> </text>
			</g>
		</g>
	</g>
	<g id="g198">
		<g>
			<defs>
				<rect id="SVGID_31_" x="-259.5" y="73.5" width="816" height="1056"/>
			</defs>
			<clipPath id="SVGID_32_">
				<use xlink:href="#SVGID_31_"  style="overflow:visible;"/>
			</clipPath>
			<g id="g200" class="st22">
				<text transform="matrix(0.75 0 0 -0.75 119.8 579.3802)" class="st4 st14">R</text>
				<text transform="matrix(0.75 0 0 -0.75 123.9961 579.3802)" class="st4 st14">e</text>
				<text transform="matrix(0.75 0 0 -0.75 128.1848 579.3802)" class="st4 st14">s</text>
				<text transform="matrix(0.75 0 0 -0.75 131.1877 579.3802)" class="st4 st14">o</text>
				<text transform="matrix(0.75 0 0 -0.75 135.3765 579.3802)" class="st4 st14">u</text>
				<text transform="matrix(0.75 0 0 -0.75 139.5652 579.3802)" class="st4 st14">r</text>
				<text transform="matrix(0.75 0 0 -0.75 142.5601 579.3802)" class="st4 st14">c</text>
				<text transform="matrix(0.75 0 0 -0.75 145.563 579.3802)" class="st4 st14">e</text>
			</g>
		</g>
	</g>
	<g id="g210">
		<g>
			<defs>
				<rect id="SVGID_33_" x="-259.5" y="73.5" width="816" height="1056"/>
			</defs>
			<clipPath id="SVGID_34_">
				<use xlink:href="#SVGID_33_"  style="overflow:visible;"/>
			</clipPath>
			<g id="g212" class="st23">
				<text transform="matrix(0.75 0 0 -0.75 120.8203 569.7701)" class="st4 st24">P</text>
				<text transform="matrix(0.75 0 0 -0.75 125.0142 569.7701)" class="st4 st24">l</text>
				<text transform="matrix(0.75 0 0 -0.75 126.8137 569.7701)" class="st4 st24">a</text>
				<text transform="matrix(0.75 0 0 -0.75 130.4136 569.7701)" class="st4 st24">n</text>
				<text transform="matrix(0.75 0 0 -0.75 134.6074 569.7701)" class="st4 st24">n</text>
				<text transform="matrix(0.75 0 0 -0.75 138.802 569.7701)" class="st4 st24">i</text>
				<text transform="matrix(0.75 0 0 -0.75 140.6016 569.7701)" class="st4 st24">n</text>
				<text transform="matrix(0.75 0 0 -0.75 144.7954 569.7701)" class="st4 st24">g</text>
			</g>
		</g>
	</g>
	<g id="g222">
		<g>
			<defs>
				<rect id="SVGID_35_" x="-259.5" y="73.5" width="816" height="1056"/>
			</defs>
			<clipPath id="SVGID_36_">
				<use xlink:href="#SVGID_35_"  style="overflow:visible;"/>
			</clipPath>
			<g id="g224" class="st25">
				<text transform="matrix(0.75 0 0 -0.75 126.2 560.1505)" class="st4 st14">(</text>
				<text transform="matrix(0.75 0 0 -0.75 128.5942 560.1505)" class="st4 st14">E</text>
				<text transform="matrix(0.75 0 0 -0.75 132.783 560.1505)" class="st4 st14">R</text>
				<text transform="matrix(0.75 0 0 -0.75 136.9797 560.1505)" class="st4 st14">P</text>
				<text transform="matrix(0.75 0 0 -0.75 141.1685 560.1505)" class="st4 st14">)</text>
			</g>
		</g>
	</g>
	<g id="g234">
		<g>
			<defs>
				<polyline id="SVGID_37_" points="-157.5,997.5 454.5,997.5 454.5,205.5 -157.5,205.5 				"/>
			</defs>
			<clipPath id="SVGID_38_">
				<use xlink:href="#SVGID_37_"  style="overflow:visible;"/>
			</clipPath>
			<g id="g236" class="st26">
				<path id="path242" class="st11" d="M145.8,785.9v-62.4"/>
			</g>
		</g>
	</g>
	<g id="g244">
		<g>
			<defs>
				<polyline id="SVGID_39_" points="-157.5,997.5 454.5,997.5 454.5,205.5 -157.5,205.5 				"/>
			</defs>
			<clipPath id="SVGID_40_">
				<use xlink:href="#SVGID_39_"  style="overflow:visible;"/>
			</clipPath>
			<g id="g246" class="st27">
				<path id="path252" class="st12" d="M148.5,724.2l-2.8-5.5l-2.8,5.5H148.5z"/>
			</g>
		</g>
	</g>
	<g id="g254">
		<g>
			<defs>
				<polyline id="SVGID_41_" points="-157.5,997.5 454.5,997.5 454.5,205.5 -157.5,205.5 				"/>
			</defs>
			<clipPath id="SVGID_42_">
				<use xlink:href="#SVGID_41_"  style="overflow:visible;"/>
			</clipPath>
			<g id="g256" class="st28">
				<path id="path262" class="st2" d="M125,737.9h41.5v28.8H125V737.9z"/>
			</g>
		</g>
	</g>
	<g id="g264">
		<g>
			<defs>
				<rect id="SVGID_43_" x="-259.5" y="73.5" width="816" height="1056"/>
			</defs>
			<clipPath id="SVGID_44_">
				<use xlink:href="#SVGID_43_"  style="overflow:visible;"/>
			</clipPath>
			<g id="g266" class="st29">
				<text transform="matrix(0.75 0 0 -0.75 125.3203 759.3001)" class="st4 st14">Q</text>
				<text transform="matrix(0.75 0 0 -0.75 130.7095 759.3001)" class="st4 st14">u</text>
				<text transform="matrix(0.75 0 0 -0.75 134.8982 759.3001)" class="st4 st14">a</text>
				<text transform="matrix(0.75 0 0 -0.75 138.5017 759.3001)" class="st4 st14">l</text>
				<text transform="matrix(0.75 0 0 -0.75 140.2961 759.3001)" class="st4 st14">i</text>
				<text transform="matrix(0.75 0 0 -0.75 142.0898 759.3001)" class="st4 st14">f</text>
				<text transform="matrix(0.75 0 0 -0.75 145.0928 759.3001)" class="st4 st14">i</text>
				<text transform="matrix(0.75 0 0 -0.75 146.8872 759.3001)" class="st4 st14">c</text>
				<text transform="matrix(0.75 0 0 -0.75 149.8901 759.3001)" class="st4 st14">a</text>
				<text transform="matrix(0.75 0 0 -0.75 154.0781 759.3001)" class="st4 st14">t</text>
				<text transform="matrix(0.75 0 0 -0.75 156.4812 759.3001)" class="st4 st14">i</text>
				<text transform="matrix(0.75 0 0 -0.75 158.2749 759.3001)" class="st4 st14">o</text>
				<text transform="matrix(0.75 0 0 -0.75 162.4717 759.3001)" class="st4 st14">n</text>
			</g>
		</g>
	</g>
	<g id="g276">
		<g>
			<defs>
				<rect id="SVGID_45_" x="-259.5" y="73.5" width="816" height="1056"/>
			</defs>
			<clipPath id="SVGID_46_">
				<use xlink:href="#SVGID_45_"  style="overflow:visible;"/>
			</clipPath>
			<g id="g278" class="st30">
				<text transform="matrix(0.75 0 0 -0.75 129.0996 749.6999)" class="st4 st14">D</text>
				<text transform="matrix(0.75 0 0 -0.75 133.897 749.6999)" class="st4 st14">o</text>
				<text transform="matrix(0.75 0 0 -0.75 138.0938 749.6999)" class="st4 st14">c</text>
				<text transform="matrix(0.75 0 0 -0.75 141.6892 749.6999)" class="st4 st14">u</text>
				<text transform="matrix(0.75 0 0 -0.75 145.8779 749.6999)" class="st4 st14">m</text>
				<text transform="matrix(0.75 0 0 -0.75 152.469 749.6999)" class="st4 st14">e</text>
				<text transform="matrix(0.75 0 0 -0.75 156.0725 749.6999)" class="st4 st14">n</text>
				<text transform="matrix(0.75 0 0 -0.75 160.2612 749.6999)" class="st4 st14">t</text>
			</g>
		</g>
	</g>
	<g id="g288">
		<g>
			<defs>
				<rect id="SVGID_47_" x="-259.5" y="73.5" width="816" height="1056"/>
			</defs>
			<clipPath id="SVGID_48_">
				<use xlink:href="#SVGID_47_"  style="overflow:visible;"/>
			</clipPath>
			<g id="g290" class="st31">
				<text transform="matrix(0.75 0 0 -0.75 134.2998 740.1)" class="st4 st24">F</text>
				<text transform="matrix(0.75 0 0 -0.75 137.8916 740.1)" class="st4 st24">o</text>
				<text transform="matrix(0.75 0 0 -0.75 142.0935 740.1)" class="st4 st24">r</text>
				<text transform="matrix(0.75 0 0 -0.75 145.0825 740.1)" class="st4 st24">m</text>
				<text transform="matrix(0.75 0 0 -0.75 151.0847 740.1)" class="st4 st24">a</text>
				<text transform="matrix(0.75 0 0 -0.75 155.2786 740.1)" class="st4 st24">t</text>
			</g>
		</g>
	</g>
	<g id="g300">
		<g>
			<defs>
				<polyline id="SVGID_49_" points="-157.5,997.5 454.5,997.5 454.5,205.5 -157.5,205.5 				"/>
			</defs>
			<clipPath id="SVGID_50_">
				<use xlink:href="#SVGID_49_"  style="overflow:visible;"/>
			</clipPath>
			<g id="g302" class="st32">
				<path id="path308" class="st11" d="M157,579.9v80"/>
			</g>
		</g>
	</g>
	<g id="g310">
		<g>
			<defs>
				<polyline id="SVGID_51_" points="-157.5,997.5 454.5,997.5 454.5,205.5 -157.5,205.5 				"/>
			</defs>
			<clipPath id="SVGID_52_">
				<use xlink:href="#SVGID_51_"  style="overflow:visible;"/>
			</clipPath>
			<g id="g312" class="st33">
				<path id="path318" class="st12" d="M154.3,659.2l2.8,5.5l2.8-5.5H154.3z"/>
			</g>
		</g>
	</g>
	<g id="g320">
		<g>
			<defs>
				<polyline id="SVGID_53_" points="-157.5,997.5 454.5,997.5 454.5,205.5 -157.5,205.5 				"/>
			</defs>
			<clipPath id="SVGID_54_">
				<use xlink:href="#SVGID_53_"  style="overflow:visible;"/>
			</clipPath>
			<g id="g322" class="st34">
				<path id="path328" class="st2" d="M135.2,598.3h43.7v48h-43.7V598.3z"/>
			</g>
		</g>
	</g>
	<g id="g330">
		<g>
			<defs>
				<rect id="SVGID_55_" x="-259.5" y="73.5" width="816" height="1056"/>
			</defs>
			<clipPath id="SVGID_56_">
				<use xlink:href="#SVGID_55_"  style="overflow:visible;"/>
			</clipPath>
			<g id="g332" class="st35">
				<text transform="matrix(0.75 0 0 -0.75 140.28 638.82)" class="st4 st14">C</text>
				<text transform="matrix(0.75 0 0 -0.75 144.4995 638.82)" class="st4 st14">u</text>
				<text transform="matrix(0.75 0 0 -0.75 148.7197 638.82)" class="st4 st14">s</text>
				<text transform="matrix(0.75 0 0 -0.75 151.7461 638.82)" class="st4 st14">t</text>
				<text transform="matrix(0.75 0 0 -0.75 154.7644 638.82)" class="st4 st14">o</text>
				<text transform="matrix(0.75 0 0 -0.75 158.9846 638.82)" class="st4 st14">m</text>
				<text transform="matrix(0.75 0 0 -0.75 165.0059 638.82)" class="st4 st14">e</text>
				<text transform="matrix(0.75 0 0 -0.75 169.2261 638.82)" class="st4 st14">r</text>
			</g>
		</g>
	</g>
	<g id="g342">
		<g>
			<defs>
				<rect id="SVGID_57_" x="-259.5" y="73.5" width="816" height="1056"/>
			</defs>
			<clipPath id="SVGID_58_">
				<use xlink:href="#SVGID_57_"  style="overflow:visible;"/>
			</clipPath>
			<g id="g344" class="st36">
				<text transform="matrix(0.75 0 0 -0.75 171.98 638.82)" class="st4 st14">-</text>
			</g>
		</g>
	</g>
	<g id="g354">
		<g>
			<defs>
				<rect id="SVGID_59_" x="-259.5" y="73.5" width="816" height="1056"/>
			</defs>
			<clipPath id="SVGID_60_">
				<use xlink:href="#SVGID_59_"  style="overflow:visible;"/>
			</clipPath>
			<g id="g356" class="st37">
				<text transform="matrix(0.75 0 0 -0.75 137.1702 629.2004)" class="st4 st14">R</text>
				<text transform="matrix(0.75 0 0 -0.75 141.4058 629.2004)" class="st4 st14">e</text>
				<text transform="matrix(0.75 0 0 -0.75 145.6099 629.2004)" class="st4 st14">l</text>
				<text transform="matrix(0.75 0 0 -0.75 147.427 629.2004)" class="st4 st14">a</text>
				<text transform="matrix(0.75 0 0 -0.75 151.054 629.2004)" class="st4 st14">t</text>
				<text transform="matrix(0.75 0 0 -0.75 154.0723 629.2004)" class="st4 st14">i</text>
				<text transform="matrix(0.75 0 0 -0.75 155.8902 629.2004)" class="st4 st14">o</text>
				<text transform="matrix(0.75 0 0 -0.75 160.1096 629.2004)" class="st4 st14">n</text>
				<text transform="matrix(0.75 0 0 -0.75 164.3298 629.2004)" class="st4 st14">s</text>
				<text transform="matrix(0.75 0 0 -0.75 167.3562 629.2004)" class="st4 st14">h</text>
				<text transform="matrix(0.75 0 0 -0.75 171.5757 629.2004)" class="st4 st14">i</text>
				<text transform="matrix(0.75 0 0 -0.75 173.3936 629.2004)" class="st4 st14">p</text>
			</g>
		</g>
	</g>
	<g id="g366">
		<g>
			<defs>
				<rect id="SVGID_61_" x="-259.5" y="73.5" width="816" height="1056"/>
			</defs>
			<clipPath id="SVGID_62_">
				<use xlink:href="#SVGID_61_"  style="overflow:visible;"/>
			</clipPath>
			<g id="g368" class="st38">
				<text transform="matrix(0.75 0 0 -0.75 135.4702 619.5998)" class="st4 st14">M</text>
				<text transform="matrix(0.75 0 0 -0.75 142.092 619.5998)" class="st4 st14">a</text>
				<text transform="matrix(0.75 0 0 -0.75 146.2808 619.5998)" class="st4 st14">n</text>
				<text transform="matrix(0.75 0 0 -0.75 150.4695 619.5998)" class="st4 st14">a</text>
				<text transform="matrix(0.75 0 0 -0.75 154.073 619.5998)" class="st4 st14">g</text>
				<text transform="matrix(0.75 0 0 -0.75 157.6765 619.5998)" class="st4 st14">e</text>
				<text transform="matrix(0.75 0 0 -0.75 161.8652 619.5998)" class="st4 st14">m</text>
				<text transform="matrix(0.75 0 0 -0.75 168.4798 619.5998)" class="st4 st14">e</text>
				<text transform="matrix(0.75 0 0 -0.75 172.0833 619.5998)" class="st4 st14">n</text>
				<text transform="matrix(0.75 0 0 -0.75 176.272 619.5998)" class="st4 st14">t</text>
			</g>
		</g>
	</g>
	<g id="g378">
		<g>
			<defs>
				<rect id="SVGID_63_" x="-259.5" y="73.5" width="816" height="1056"/>
			</defs>
			<clipPath id="SVGID_64_">
				<use xlink:href="#SVGID_63_"  style="overflow:visible;"/>
			</clipPath>
			<g id="g380" class="st39">
				<text transform="matrix(0.75 0 0 -0.75 142.6802 609.9999)" class="st4 st14">S</text>
				<text transform="matrix(0.75 0 0 -0.75 146.2603 609.9999)" class="st4 st14">o</text>
				<text transform="matrix(0.75 0 0 -0.75 150.4724 609.9999)" class="st4 st14">f</text>
				<text transform="matrix(0.75 0 0 -0.75 152.8513 609.9999)" class="st4 st14">t</text>
				<text transform="matrix(0.75 0 0 -0.75 155.8623 609.9999)" class="st4 st14">w</text>
				<text transform="matrix(0.75 0 0 -0.75 161.2595 609.9999)" class="st4 st14">a</text>
				<text transform="matrix(0.75 0 0 -0.75 165.4483 609.9999)" class="st4 st14">r</text>
				<text transform="matrix(0.75 0 0 -0.75 167.8506 609.9999)" class="st4 st14">e</text>
			</g>
		</g>
	</g>
	<g id="g390">
		<g>
			<defs>
				<rect id="SVGID_65_" x="-259.5" y="73.5" width="816" height="1056"/>
			</defs>
			<clipPath id="SVGID_66_">
				<use xlink:href="#SVGID_65_"  style="overflow:visible;"/>
			</clipPath>
			<g id="g392" class="st40">
				<text transform="matrix(0.75 0 0 -0.75 147.2 600.4)" class="st4 st24">(</text>
				<text transform="matrix(0.75 0 0 -0.75 149.5942 600.4)" class="st4 st24">C</text>
				<text transform="matrix(0.75 0 0 -0.75 153.7888 600.4)" class="st4 st24">R</text>
				<text transform="matrix(0.75 0 0 -0.75 157.9907 600.4)" class="st4 st24">M</text>
				<text transform="matrix(0.75 0 0 -0.75 165.1817 600.4)" class="st4 st24">)</text>
			</g>
		</g>
	</g>
	<g id="g402">
		<g>
			<defs>
				<polyline id="SVGID_67_" points="-157.5,997.5 454.5,997.5 454.5,205.5 -157.5,205.5 				"/>
			</defs>
			<clipPath id="SVGID_68_">
				<use xlink:href="#SVGID_67_"  style="overflow:visible;"/>
			</clipPath>
			<g id="g404" class="st41">
				<path id="path410" class="st11" d="M112,601.5v58.4"/>
			</g>
		</g>
	</g>
	<g id="g412">
		<g>
			<defs>
				<polyline id="SVGID_69_" points="-157.5,997.5 454.5,997.5 454.5,205.5 -157.5,205.5 				"/>
			</defs>
			<clipPath id="SVGID_70_">
				<use xlink:href="#SVGID_69_"  style="overflow:visible;"/>
			</clipPath>
			<g id="g414" class="st42">
				<path id="path420" class="st12" d="M109.3,659.2l2.8,5.5l2.8-5.5H109.3z"/>
			</g>
		</g>
	</g>
	<g id="g422">
		<g>
			<defs>
				<polyline id="SVGID_71_" points="-157.5,997.5 454.5,997.5 454.5,205.5 -157.5,205.5 				"/>
			</defs>
			<clipPath id="SVGID_72_">
				<use xlink:href="#SVGID_71_"  style="overflow:visible;"/>
			</clipPath>
			<g id="g424" class="st43">
				<path id="path430" class="st2" d="M86.7,613.9h50.7v38.4H86.7V613.9z"/>
			</g>
		</g>
	</g>
	<g id="g432">
		<g>
			<defs>
				<rect id="SVGID_73_" x="-259.5" y="73.5" width="816" height="1056"/>
			</defs>
			<clipPath id="SVGID_74_">
				<use xlink:href="#SVGID_73_"  style="overflow:visible;"/>
			</clipPath>
			<g id="g434" class="st44">
				<text transform="matrix(0.75 0 0 -0.75 86.9202 644.8303)" class="st4 st14">D</text>
				<text transform="matrix(0.75 0 0 -0.75 91.7168 644.8303)" class="st4 st14">o</text>
				<text transform="matrix(0.75 0 0 -0.75 95.9136 644.8303)" class="st4 st14">c</text>
				<text transform="matrix(0.75 0 0 -0.75 99.509 644.8303)" class="st4 st14">u</text>
				<text transform="matrix(0.75 0 0 -0.75 103.6977 644.8303)" class="st4 st14">m</text>
				<text transform="matrix(0.75 0 0 -0.75 110.2888 644.8303)" class="st4 st14">e</text>
				<text transform="matrix(0.75 0 0 -0.75 113.8923 644.8303)" class="st4 st14">n</text>
				<text transform="matrix(0.75 0 0 -0.75 118.0811 644.8303)" class="st4 st14">t</text>
				<text transform="matrix(0.75 0 0 -0.75 121.0759 644.8303)" class="st4 st14">a</text>
				<text transform="matrix(0.75 0 0 -0.75 124.6802 644.8303)" class="st4 st14">t</text>
				<text transform="matrix(0.75 0 0 -0.75 127.0825 644.8303)" class="st4 st14">i</text>
				<text transform="matrix(0.75 0 0 -0.75 129.4768 644.8303)" class="st4 st14">o</text>
				<text transform="matrix(0.75 0 0 -0.75 133.6655 644.8303)" class="st4 st14">n</text>
			</g>
		</g>
	</g>
	<g id="g444">
		<g>
			<defs>
				<rect id="SVGID_75_" x="-259.5" y="73.5" width="816" height="1056"/>
			</defs>
			<clipPath id="SVGID_76_">
				<use xlink:href="#SVGID_75_"  style="overflow:visible;"/>
			</clipPath>
			<g id="g446" class="st45">
				<text transform="matrix(0.75 0 0 -0.75 90.4299 635.2304)" class="st4 st24">M</text>
				<text transform="matrix(0.75 0 0 -0.75 97.0576 635.2304)" class="st4 st24">a</text>
				<text transform="matrix(0.75 0 0 -0.75 101.2756 635.2304)" class="st4 st24">n</text>
				<text transform="matrix(0.75 0 0 -0.75 105.4929 635.2304)" class="st4 st24">a</text>
				<text transform="matrix(0.75 0 0 -0.75 109.1162 635.2304)" class="st4 st24">g</text>
				<text transform="matrix(0.75 0 0 -0.75 112.7388 635.2304)" class="st4 st24">e</text>
				<text transform="matrix(0.75 0 0 -0.75 116.9568 635.2304)" class="st4 st24">m</text>
				<text transform="matrix(0.75 0 0 -0.75 123.5764 635.2304)" class="st4 st24">e</text>
				<text transform="matrix(0.75 0 0 -0.75 127.1997 635.2304)" class="st4 st24">n</text>
				<text transform="matrix(0.75 0 0 -0.75 131.417 635.2304)" class="st4 st24">t</text>
			</g>
		</g>
	</g>
	<g id="g456">
		<g>
			<defs>
				<rect id="SVGID_77_" x="-259.5" y="73.5" width="816" height="1056"/>
			</defs>
			<clipPath id="SVGID_78_">
				<use xlink:href="#SVGID_77_"  style="overflow:visible;"/>
			</clipPath>
			<g id="g458" class="st46">
				<text transform="matrix(0.75 0 0 -0.75 97.6304 625.5998)" class="st4 st14">S</text>
				<text transform="matrix(0.75 0 0 -0.75 101.2104 625.5998)" class="st4 st14">o</text>
				<text transform="matrix(0.75 0 0 -0.75 105.4219 625.5998)" class="st4 st14">f</text>
				<text transform="matrix(0.75 0 0 -0.75 107.8008 625.5998)" class="st4 st14">t</text>
				<text transform="matrix(0.75 0 0 -0.75 110.8118 625.5998)" class="st4 st14">w</text>
				<text transform="matrix(0.75 0 0 -0.75 116.2097 625.5998)" class="st4 st14">a</text>
				<text transform="matrix(0.75 0 0 -0.75 120.3984 625.5998)" class="st4 st14">r</text>
				<text transform="matrix(0.75 0 0 -0.75 122.8008 625.5998)" class="st4 st14">e</text>
			</g>
		</g>
	</g>
	<g id="g468">
		<g>
			<defs>
				<rect id="SVGID_79_" x="-259.5" y="73.5" width="816" height="1056"/>
			</defs>
			<clipPath id="SVGID_80_">
				<use xlink:href="#SVGID_79_"  style="overflow:visible;"/>
			</clipPath>
			<g id="g470" class="st47">
				<text transform="matrix(0.75 0 0 -0.75 102.1501 615.9999)" class="st4 st14">(</text>
				<text transform="matrix(0.75 0 0 -0.75 104.5444 615.9999)" class="st4 st14">D</text>
				<text transform="matrix(0.75 0 0 -0.75 109.3418 615.9999)" class="st4 st14">M</text>
				<text transform="matrix(0.75 0 0 -0.75 116.5642 615.9999)" class="st4 st14">S</text>
				<text transform="matrix(0.75 0 0 -0.75 120.1443 615.9999)" class="st4 st14">)</text>
			</g>
		</g>
	</g>
	<g id="g480">
		<g>
			<defs>
				<polyline id="SVGID_81_" points="-157.5,997.5 454.5,997.5 454.5,205.5 -157.5,205.5 				"/>
			</defs>
			<clipPath id="SVGID_82_">
				<use xlink:href="#SVGID_81_"  style="overflow:visible;"/>
			</clipPath>
			<g id="g482" class="st48">
				<path id="path488" class="st11" d="M179.5,466.5v193.4"/>
			</g>
		</g>
	</g>
	<g id="g490">
		<g>
			<defs>
				<polyline id="SVGID_83_" points="-157.5,997.5 454.5,997.5 454.5,205.5 -157.5,205.5 				"/>
			</defs>
			<clipPath id="SVGID_84_">
				<use xlink:href="#SVGID_83_"  style="overflow:visible;"/>
			</clipPath>
			<g id="g492" class="st49">
				<path id="path498" class="st12" d="M176.8,659.2l2.8,5.5l2.8-5.5H176.8z"/>
			</g>
		</g>
	</g>
	<g id="g500">
		<g>
			<defs>
				<polyline id="SVGID_85_" points="-157.5,997.5 454.5,997.5 454.5,205.5 -157.5,205.5 				"/>
			</defs>
			<clipPath id="SVGID_86_">
				<use xlink:href="#SVGID_85_"  style="overflow:visible;"/>
			</clipPath>
			<g id="g502" class="st50">
				<path id="path508" class="st2" d="M158.2,556h42.7v19.2h-42.7V556z"/>
			</g>
		</g>
	</g>
	<g id="g510">
		<g>
			<defs>
				<rect id="SVGID_87_" x="-259.5" y="73.5" width="816" height="1056"/>
			</defs>
			<clipPath id="SVGID_88_">
				<use xlink:href="#SVGID_87_"  style="overflow:visible;"/>
			</clipPath>
			<g id="g512" class="st51">
				<text transform="matrix(0.75 0 0 -0.75 158.48 567.6703)" class="st4 st24">P</text>
				<text transform="matrix(0.75 0 0 -0.75 162.6738 567.6703)" class="st4 st24">r</text>
				<text transform="matrix(0.75 0 0 -0.75 165.6636 567.6703)" class="st4 st24">o</text>
				<text transform="matrix(0.75 0 0 -0.75 169.8574 567.6703)" class="st4 st24">c</text>
				<text transform="matrix(0.75 0 0 -0.75 172.8545 567.6703)" class="st4 st24">u</text>
				<text transform="matrix(0.75 0 0 -0.75 177.0484 567.6703)" class="st4 st24">r</text>
				<text transform="matrix(0.75 0 0 -0.75 180.0381 567.6703)" class="st4 st24">e</text>
				<text transform="matrix(0.75 0 0 -0.75 183.6372 567.6703)" class="st4 st24">m</text>
				<text transform="matrix(0.75 0 0 -0.75 190.2576 567.6703)" class="st4 st24">e</text>
				<text transform="matrix(0.75 0 0 -0.75 194.4514 567.6703)" class="st4 st24">n</text>
				<text transform="matrix(0.75 0 0 -0.75 198.646 567.6703)" class="st4 st24">t</text>
			</g>
		</g>
	</g>
	<g id="g522">
		<g>
			<defs>
				<rect id="SVGID_89_" x="-259.5" y="73.5" width="816" height="1056"/>
			</defs>
			<clipPath id="SVGID_90_">
				<use xlink:href="#SVGID_89_"  style="overflow:visible;"/>
			</clipPath>
			<g id="g524" class="st52">
				<text transform="matrix(0.75 0 0 -0.75 165.2 558.0499)" class="st4 st14">S</text>
				<text transform="matrix(0.75 0 0 -0.75 168.78 558.0499)" class="st4 st14">o</text>
				<text transform="matrix(0.75 0 0 -0.75 172.9922 558.0499)" class="st4 st14">f</text>
				<text transform="matrix(0.75 0 0 -0.75 175.3711 558.0499)" class="st4 st14">t</text>
				<text transform="matrix(0.75 0 0 -0.75 178.3821 558.0499)" class="st4 st14">w</text>
				<text transform="matrix(0.75 0 0 -0.75 183.7793 558.0499)" class="st4 st14">a</text>
				<text transform="matrix(0.75 0 0 -0.75 187.968 558.0499)" class="st4 st14">r</text>
				<text transform="matrix(0.75 0 0 -0.75 190.3704 558.0499)" class="st4 st14">e</text>
			</g>
		</g>
	</g>
</g>
</svg>
